<svg width="1631" height="1694" viewBox="0 0 1631 1694" fill="none" xmlns="http://www.w3.org/2000/svg">
<rect width="1631" height="1694" fill="white"/>
<rect x="1630" y="64.3506" width="60.3507" height="1629.47" transform="rotate(90 1630 64.3506)" fill="#ECCC91" fill-opacity="0.55"/>
<rect x="1630" y="185.052" width="60.3507" height="1629.47" transform="rotate(90 1630 185.052)" fill="#ECCC91" fill-opacity="0.55"/>
<rect x="1629.47" y="667.857" width="60.3507" height="1629.47" transform="rotate(90 1629.47 667.857)" fill="#ECCC91" fill-opacity="0.55"/>
<rect x="1629.47" y="788.558" width="60.3507" height="1629.47" transform="rotate(90 1629.47 788.558)" fill="#ECCC91" fill-opacity="0.55"/>
<rect x="1630" y="547.155" width="60.3507" height="1629.47" transform="rotate(90 1630 547.155)" fill="#ECCC91" fill-opacity="0.55"/>
<rect x="1630" y="305.753" width="60.3507" height="1629.47" transform="rotate(90 1630 305.753)" fill="#ECCC91" fill-opacity="0.55"/>
<rect x="1630" y="426.454" width="60.3507" height="1629.47" transform="rotate(90 1630 426.454)" fill="#ECCC91" fill-opacity="0.55"/>
<rect x="0.533936" y="4" width="60.3506" height="844.908" fill="#ECCC91" fill-opacity="0.55"/>
<rect x="121.235" y="4" width="60.3506" height="844.908" fill="#ECCC91" fill-opacity="0.55"/>
<rect x="483.339" y="4" width="60.3506" height="844.908" fill="#ECCC91" fill-opacity="0.55"/>
<rect x="241.937" y="4" width="60.3506" height="844.908" fill="#ECCC91" fill-opacity="0.55"/>
<rect x="362.638" y="4" width="60.3506" height="844.908" fill="#ECCC91" fill-opacity="0.55"/>
<rect x="604.04" y="4" width="60.3506" height="844.908" fill="#ECCC91" fill-opacity="0.55"/>
<rect x="966.144" y="4" width="60.3506" height="844.908" fill="#ECCC91" fill-opacity="0.55"/>
<rect x="724.741" y="4" width="60.3506" height="844.908" fill="#ECCC91" fill-opacity="0.55"/>
<rect x="845.442" y="4" width="60.3506" height="844.908" fill="#ECCC91" fill-opacity="0.55"/>
<rect x="1086.84" y="4" width="60.3506" height="844.908" fill="#ECCC91" fill-opacity="0.55"/>
<rect x="1207.55" y="4" width="60.3506" height="844.908" fill="#ECCC91" fill-opacity="0.55"/>
<rect x="1569.65" y="4" width="60.3506" height="844.908" fill="#ECCC91" fill-opacity="0.55"/>
<rect x="1328.25" y="4" width="60.3506" height="844.908" fill="#ECCC91" fill-opacity="0.55"/>
<rect x="1448.95" y="4" width="60.3506" height="844.908" fill="#ECCC91" fill-opacity="0.55"/>
<rect x="1630.53" y="909.259" width="60.3507" height="1629.47" transform="rotate(90 1630.53 909.259)" fill="#ECCC91" fill-opacity="0.55"/>
<rect x="1630.53" y="1029.96" width="60.3507" height="1629.47" transform="rotate(90 1630.53 1029.96)" fill="#ECCC91" fill-opacity="0.55"/>
<rect x="1630" y="1512.76" width="60.3507" height="1629.47" transform="rotate(90 1630 1512.76)" fill="#ECCC91" fill-opacity="0.55"/>
<rect x="1630" y="1633.47" width="60.3507" height="1629.47" transform="rotate(90 1630 1633.47)" fill="#ECCC91" fill-opacity="0.55"/>
<rect x="1630.53" y="1392.06" width="60.3507" height="1629.47" transform="rotate(90 1630.53 1392.06)" fill="#ECCC91" fill-opacity="0.55"/>
<rect x="1630.53" y="1150.66" width="60.3507" height="1629.47" transform="rotate(90 1630.53 1150.66)" fill="#ECCC91" fill-opacity="0.55"/>
<rect x="1630.53" y="1271.36" width="60.3507" height="1629.47" transform="rotate(90 1630.53 1271.36)" fill="#ECCC91" fill-opacity="0.55"/>
<rect x="1.06812" y="848.908" width="60.3506" height="844.908" fill="#ECCC91" fill-opacity="0.55"/>
<rect x="121.769" y="848.908" width="60.3506" height="844.908" fill="#ECCC91" fill-opacity="0.55"/>
<rect x="483.873" y="848.908" width="60.3506" height="844.908" fill="#ECCC91" fill-opacity="0.55"/>
<rect x="242.47" y="848.908" width="60.3506" height="844.908" fill="#ECCC91" fill-opacity="0.55"/>
<rect x="363.172" y="848.908" width="60.3506" height="844.908" fill="#ECCC91" fill-opacity="0.55"/>
<rect x="604.574" y="848.908" width="60.3506" height="844.908" fill="#ECCC91" fill-opacity="0.55"/>
<rect x="966.677" y="848.908" width="60.3506" height="844.908" fill="#ECCC91" fill-opacity="0.55"/>
<rect x="725.275" y="848.908" width="60.3506" height="844.908" fill="#ECCC91" fill-opacity="0.55"/>
<rect x="845.976" y="848.908" width="60.3506" height="844.908" fill="#ECCC91" fill-opacity="0.55"/>
<rect x="1087.38" y="848.908" width="60.3506" height="844.908" fill="#ECCC91" fill-opacity="0.55"/>
<rect x="1208.08" y="848.908" width="60.3506" height="844.908" fill="#ECCC91" fill-opacity="0.55"/>
<rect x="1570.18" y="848.908" width="60.3506" height="844.908" fill="#ECCC91" fill-opacity="0.55"/>
<rect x="1328.78" y="848.908" width="60.3506" height="844.908" fill="#ECCC91" fill-opacity="0.55"/>
<rect x="1449.48" y="848.908" width="60.3506" height="844.908" fill="#ECCC91" fill-opacity="0.55"/>
</svg>
