<svg width="1440" height="688" viewBox="0 0 1440 688" fill="none" xmlns="http://www.w3.org/2000/svg">
<path d="M1443 0C1570.58 0 1674 59.126 1674 132.062C1674 170.619 1645.1 205.314 1599 229.457V307H-110V228.932C-155.513 204.812 -184 170.339 -184 132.062C-184 59.126 -80.5778 0 47 0C112.361 0 171.38 15.5216 213.401 40.4658C255.699 71.178 321.321 90.8994 395 90.8994C462.442 90.8994 523.132 74.3739 565.363 48.0225H566.801C609.17 18.6927 673.267 0 745 0C816.733 0 880.83 18.6927 923.199 48.0225H923.825C966.123 75.0386 1027.59 92.043 1096 92.043C1174.58 92.043 1243.99 69.6114 1285.72 35.3408C1326.96 13.4131 1382.24 0 1443 0Z" fill="#4C321B"/>
<rect x="-24" y="213" width="1522" height="487" fill="#4C321B"/>
</svg>
