<svg width="696" height="568" viewBox="0 0 696 568" fill="none" xmlns="http://www.w3.org/2000/svg">
<g filter="url(#filter0_d_232_43)">
<mask id="path-1-outside-1_232_43" maskUnits="userSpaceOnUse" x="-55.2956" y="293.99" width="127.046" height="128.151" fill="black">
<rect fill="white" x="-55.2956" y="293.99" width="127.046" height="128.151"/>
<path d="M62.6268 346.884C61.2982 350.901 59.287 354.767 56.565 358.312L37.0557 383.718C24.0234 400.689 -0.299423 403.882 -17.2706 390.85C-34.2418 377.818 -37.435 353.495 -24.4027 336.524L-4.89344 311.118C-2.17145 307.573 1.04464 304.631 4.58184 302.311L62.6268 346.884Z"/>
</mask>
<path d="M62.6268 346.884C61.2982 350.901 59.287 354.767 56.565 358.312L37.0557 383.718C24.0234 400.689 -0.299423 403.882 -17.2706 390.85C-34.2418 377.818 -37.435 353.495 -24.4027 336.524L-4.89344 311.118C-2.17145 307.573 1.04464 304.631 4.58184 302.311L62.6268 346.884Z" fill="#F1F1F1"/>
<path d="M62.6268 346.884L67.3738 348.455L68.4895 345.082L65.6721 342.919L62.6268 346.884ZM-17.2706 390.85L-20.3159 394.816L-20.3159 394.816L-17.2706 390.85ZM4.58184 302.311L7.62709 298.345L4.80967 296.182L1.8394 298.13L4.58184 302.311ZM62.6268 346.884L57.8798 345.314C56.7239 348.808 54.9739 352.175 52.5993 355.267L56.565 358.312L60.5306 361.357C63.6001 357.36 65.8724 352.993 67.3738 348.455L62.6268 346.884ZM56.565 358.312L52.5993 355.267L33.09 380.673L37.0557 383.718L41.0214 386.763L60.5306 361.357L56.565 358.312ZM37.0557 383.718L33.09 380.673C21.7396 395.454 0.555663 398.235 -14.2254 386.884L-17.2706 390.85L-20.3159 394.816C-1.15451 409.53 26.3072 405.925 41.0214 386.763L37.0557 383.718ZM-17.2706 390.85L-14.2254 386.884C-29.0064 375.534 -31.7875 354.35 -20.437 339.569L-24.4027 336.524L-28.3683 333.478C-43.0825 352.64 -39.4773 380.101 -20.3159 394.816L-17.2706 390.85ZM-24.4027 336.524L-20.437 339.569L-0.927784 314.163L-4.89344 311.118L-8.8591 308.073L-28.3683 333.478L-24.4027 336.524ZM-4.89344 311.118L-0.927784 314.163C1.44722 311.07 4.2476 308.51 7.32427 306.492L4.58184 302.311L1.8394 298.13C-2.15833 300.753 -5.79013 304.076 -8.8591 308.073L-4.89344 311.118ZM4.58184 302.311L1.53659 306.277L59.5816 350.85L62.6268 346.884L65.6721 342.919L7.62709 298.345L4.58184 302.311Z" fill="#F1F1F1" mask="url(#path-1-outside-1_232_43)"/>
<mask id="path-3-inside-2_232_43" fill="white">
<path d="M62.6268 346.884C61.2982 350.901 59.287 354.767 56.565 358.312L37.0557 383.718C24.0234 400.689 -0.299423 403.882 -17.2706 390.85C-34.2418 377.818 -37.435 353.495 -24.4027 336.524L-4.89344 311.118C-2.17145 307.573 1.04464 304.631 4.58184 302.311L62.6268 346.884Z"/>
</mask>
<path d="M62.6268 346.884C61.2982 350.901 59.287 354.767 56.565 358.312L37.0557 383.718C24.0234 400.689 -0.299423 403.882 -17.2706 390.85C-34.2418 377.818 -37.435 353.495 -24.4027 336.524L-4.89344 311.118C-2.17145 307.573 1.04464 304.631 4.58184 302.311L62.6268 346.884Z" fill="#F1F1F1"/>
<path d="M62.6268 346.884L67.3738 348.455L68.4895 345.082L65.6721 342.919L62.6268 346.884ZM-17.2706 390.85L-20.3159 394.816L-20.3159 394.816L-17.2706 390.85ZM4.58184 302.311L7.62709 298.345L4.80967 296.182L1.8394 298.13L4.58184 302.311ZM62.6268 346.884L57.8798 345.314C56.7239 348.808 54.9739 352.175 52.5993 355.267L56.565 358.312L60.5306 361.357C63.6001 357.36 65.8724 352.993 67.3738 348.455L62.6268 346.884ZM56.565 358.312L52.5993 355.267L33.09 380.673L37.0557 383.718L41.0214 386.763L60.5306 361.357L56.565 358.312ZM37.0557 383.718L33.09 380.673C21.7396 395.454 0.555663 398.235 -14.2254 386.884L-17.2706 390.85L-20.3159 394.816C-1.15451 409.53 26.3072 405.925 41.0214 386.763L37.0557 383.718ZM-17.2706 390.85L-14.2254 386.884C-29.0064 375.534 -31.7875 354.35 -20.437 339.569L-24.4027 336.524L-28.3683 333.478C-43.0825 352.64 -39.4773 380.101 -20.3159 394.816L-17.2706 390.85ZM-24.4027 336.524L-20.437 339.569L-0.927784 314.163L-4.89344 311.118L-8.8591 308.073L-28.3683 333.478L-24.4027 336.524ZM-4.89344 311.118L-0.927784 314.163C1.44722 311.07 4.2476 308.51 7.32427 306.492L4.58184 302.311L1.8394 298.13C-2.15833 300.753 -5.79013 304.076 -8.8591 308.073L-4.89344 311.118ZM4.58184 302.311L1.53659 306.277L59.5816 350.85L62.6268 346.884L65.6721 342.919L7.62709 298.345L4.58184 302.311Z" fill="#F1F1F1" mask="url(#path-3-inside-2_232_43)"/>
<mask id="path-5-outside-3_232_43" maskUnits="userSpaceOnUse" x="10.3441" y="344.394" width="127.046" height="128.151" fill="black">
<rect fill="white" x="10.3441" y="344.394" width="127.046" height="128.151"/>
<path d="M128.267 397.288C126.938 401.305 124.926 405.172 122.204 408.717L102.695 434.122C89.6626 451.094 65.3397 454.287 48.3685 441.255C31.3973 428.222 28.2041 403.899 41.2365 386.928L60.7457 361.522C63.468 357.977 66.6847 355.036 70.2223 352.715L128.267 397.288Z"/>
</mask>
<path d="M128.267 397.288C126.938 401.305 124.926 405.172 122.204 408.717L102.695 434.122C89.6626 451.094 65.3397 454.287 48.3685 441.255C31.3973 428.222 28.2041 403.899 41.2365 386.928L60.7457 361.522C63.468 357.977 66.6847 355.036 70.2223 352.715L128.267 397.288Z" fill="#F1F1F1"/>
<path d="M128.267 397.288L133.014 398.858L134.129 395.486L131.312 393.322L128.267 397.288ZM48.3685 441.255L45.3233 445.22L45.3233 445.22L48.3685 441.255ZM41.2365 386.928L45.2021 389.973L41.2365 386.928ZM60.7457 361.522L56.78 358.477L60.7457 361.522ZM70.2223 352.715L73.2676 348.75L70.4503 346.586L67.4801 348.535L70.2223 352.715ZM128.267 397.288L123.52 395.718C122.364 399.212 120.613 402.579 118.238 405.671L122.204 408.717L126.17 411.762C129.239 407.765 131.512 403.397 133.014 398.858L128.267 397.288ZM122.204 408.717L118.238 405.671L98.7292 431.077L102.695 434.122L106.661 437.168L126.17 411.762L122.204 408.717ZM102.695 434.122L98.7292 431.077C87.3788 445.858 66.1948 448.639 51.4137 437.289L48.3685 441.255L45.3233 445.22C64.4846 459.934 91.9464 456.329 106.661 437.168L102.695 434.122ZM48.3685 441.255L51.4138 437.289C36.6327 425.938 33.8517 404.755 45.2021 389.973L41.2365 386.928L37.2708 383.883C22.5566 403.044 26.1619 430.506 45.3233 445.22L48.3685 441.255ZM41.2365 386.928L45.2021 389.973L64.7114 364.568L60.7457 361.522L56.78 358.477L37.2708 383.883L41.2365 386.928ZM60.7457 361.522L64.7114 364.568C67.0863 361.475 69.8872 358.915 72.9646 356.896L70.2223 352.715L67.4801 348.535C63.4822 351.157 59.8496 354.48 56.78 358.477L60.7457 361.522ZM70.2223 352.715L67.1771 356.681L125.221 401.254L128.267 397.288L131.312 393.322L73.2676 348.75L70.2223 352.715Z" fill="#F1F1F1" mask="url(#path-5-outside-3_232_43)"/>
<mask id="path-7-inside-4_232_43" fill="white">
<path d="M128.267 397.288C126.938 401.305 124.926 405.172 122.204 408.717L102.695 434.122C89.6626 451.094 65.3397 454.287 48.3685 441.255C31.3973 428.222 28.2041 403.899 41.2365 386.928L60.7457 361.522C63.468 357.977 66.6847 355.036 70.2223 352.715L128.267 397.288Z"/>
</mask>
<path d="M128.267 397.288C126.938 401.305 124.926 405.172 122.204 408.717L102.695 434.122C89.6626 451.094 65.3397 454.287 48.3685 441.255C31.3973 428.222 28.2041 403.899 41.2365 386.928L60.7457 361.522C63.468 357.977 66.6847 355.036 70.2223 352.715L128.267 397.288Z" fill="#F1F1F1"/>
<path d="M128.267 397.288L133.014 398.858L134.129 395.486L131.312 393.322L128.267 397.288ZM48.3685 441.255L45.3233 445.22L45.3233 445.22L48.3685 441.255ZM41.2365 386.928L45.2021 389.973L41.2365 386.928ZM60.7457 361.522L56.78 358.477L60.7457 361.522ZM70.2223 352.715L73.2676 348.75L70.4503 346.586L67.4801 348.535L70.2223 352.715ZM128.267 397.288L123.52 395.718C122.364 399.212 120.613 402.579 118.238 405.671L122.204 408.717L126.17 411.762C129.239 407.765 131.512 403.397 133.014 398.858L128.267 397.288ZM122.204 408.717L118.238 405.671L98.7292 431.077L102.695 434.122L106.661 437.168L126.17 411.762L122.204 408.717ZM102.695 434.122L98.7292 431.077C87.3788 445.858 66.1948 448.639 51.4137 437.289L48.3685 441.255L45.3233 445.22C64.4846 459.934 91.9464 456.329 106.661 437.168L102.695 434.122ZM48.3685 441.255L51.4138 437.289C36.6327 425.938 33.8517 404.755 45.2021 389.973L41.2365 386.928L37.2708 383.883C22.5566 403.044 26.1619 430.506 45.3233 445.22L48.3685 441.255ZM41.2365 386.928L45.2021 389.973L64.7114 364.568L60.7457 361.522L56.78 358.477L37.2708 383.883L41.2365 386.928ZM60.7457 361.522L64.7114 364.568C67.0863 361.475 69.8872 358.915 72.9646 356.896L70.2223 352.715L67.4801 348.535C63.4822 351.157 59.8496 354.48 56.78 358.477L60.7457 361.522ZM70.2223 352.715L67.1771 356.681L125.221 401.254L128.267 397.288L131.312 393.322L73.2676 348.75L70.2223 352.715Z" fill="#F1F1F1" mask="url(#path-7-inside-4_232_43)"/>
<mask id="path-9-outside-5_232_43" maskUnits="userSpaceOnUse" x="75.9832" y="394.798" width="127.046" height="128.151" fill="black">
<rect fill="white" x="75.9832" y="394.798" width="127.046" height="128.151"/>
<path d="M193.906 447.693C192.577 451.709 190.565 455.576 187.843 459.121L168.334 484.527C155.302 501.498 130.979 504.691 114.008 491.659C97.0364 478.627 93.8432 454.304 106.876 437.333L126.385 411.927C129.107 408.382 132.324 405.44 135.861 403.12L193.906 447.693Z"/>
</mask>
<path d="M193.906 447.693C192.577 451.709 190.565 455.576 187.843 459.121L168.334 484.527C155.302 501.498 130.979 504.691 114.008 491.659C97.0364 478.627 93.8432 454.304 106.876 437.333L126.385 411.927C129.107 408.382 132.324 405.44 135.861 403.12L193.906 447.693Z" fill="#F1F1F1"/>
<path d="M193.906 447.693L198.653 449.263L199.768 445.89L196.951 443.727L193.906 447.693ZM187.843 459.121L191.809 462.167L187.843 459.121ZM168.334 484.527L164.368 481.482L168.334 484.527ZM114.008 491.659L110.962 495.625L110.962 495.625L114.008 491.659ZM106.876 437.333L110.841 440.378L106.876 437.333ZM126.385 411.927L122.419 408.882L126.385 411.927ZM135.861 403.12L138.907 399.154L136.089 396.991L133.119 398.939L135.861 403.12ZM193.906 447.693L189.159 446.122C188.003 449.617 186.252 452.983 183.878 456.076L187.843 459.121L191.809 462.167C194.878 458.169 197.151 453.802 198.653 449.263L193.906 447.693ZM187.843 459.121L183.878 456.076L164.368 481.482L168.334 484.527L172.3 487.572L191.809 462.167L187.843 459.121ZM168.334 484.527L164.368 481.482C153.018 496.263 131.834 499.044 117.053 487.694L114.008 491.659L110.962 495.625C130.124 510.339 157.585 506.734 172.3 487.572L168.334 484.527ZM114.008 491.659L117.053 487.694C102.272 476.343 99.4907 455.159 110.841 440.378L106.876 437.333L102.91 434.288C88.1957 453.449 91.8009 480.911 110.962 495.625L114.008 491.659ZM106.876 437.333L110.841 440.378L130.35 414.972L126.385 411.927L122.419 408.882L102.91 434.288L106.876 437.333ZM126.385 411.927L130.35 414.972C132.725 411.88 135.526 409.32 138.604 407.301L135.861 403.12L133.119 398.939C129.121 401.561 125.489 404.885 122.419 408.882L126.385 411.927ZM135.861 403.12L132.816 407.086L190.86 451.658L193.906 447.693L196.951 443.727L138.907 399.154L135.861 403.12Z" fill="#F1F1F1" mask="url(#path-9-outside-5_232_43)"/>
<mask id="path-11-inside-6_232_43" fill="white">
<path d="M193.906 447.693C192.577 451.709 190.565 455.576 187.843 459.121L168.334 484.527C155.302 501.498 130.979 504.691 114.008 491.659C97.0364 478.627 93.8432 454.304 106.876 437.333L126.385 411.927C129.107 408.382 132.324 405.44 135.861 403.12L193.906 447.693Z"/>
</mask>
<path d="M193.906 447.693C192.577 451.709 190.565 455.576 187.843 459.121L168.334 484.527C155.302 501.498 130.979 504.691 114.008 491.659C97.0364 478.627 93.8432 454.304 106.876 437.333L126.385 411.927C129.107 408.382 132.324 405.44 135.861 403.12L193.906 447.693Z" fill="#F1F1F1"/>
<path d="M193.906 447.693L198.653 449.263L199.768 445.89L196.951 443.727L193.906 447.693ZM187.843 459.121L191.809 462.167L187.843 459.121ZM168.334 484.527L164.368 481.482L168.334 484.527ZM114.008 491.659L110.962 495.625L110.962 495.625L114.008 491.659ZM106.876 437.333L110.841 440.378L106.876 437.333ZM126.385 411.927L122.419 408.882L126.385 411.927ZM135.861 403.12L138.907 399.154L136.089 396.991L133.119 398.939L135.861 403.12ZM193.906 447.693L189.159 446.122C188.003 449.617 186.252 452.983 183.878 456.076L187.843 459.121L191.809 462.167C194.878 458.169 197.151 453.802 198.653 449.263L193.906 447.693ZM187.843 459.121L183.878 456.076L164.368 481.482L168.334 484.527L172.3 487.572L191.809 462.167L187.843 459.121ZM168.334 484.527L164.368 481.482C153.018 496.263 131.834 499.044 117.053 487.694L114.008 491.659L110.962 495.625C130.124 510.339 157.585 506.734 172.3 487.572L168.334 484.527ZM114.008 491.659L117.053 487.694C102.272 476.343 99.4907 455.159 110.841 440.378L106.876 437.333L102.91 434.288C88.1957 453.449 91.8009 480.911 110.962 495.625L114.008 491.659ZM106.876 437.333L110.841 440.378L130.35 414.972L126.385 411.927L122.419 408.882L102.91 434.288L106.876 437.333ZM126.385 411.927L130.35 414.972C132.725 411.88 135.526 409.32 138.604 407.301L135.861 403.12L133.119 398.939C129.121 401.561 125.489 404.885 122.419 408.882L126.385 411.927ZM135.861 403.12L132.816 407.086L190.86 451.658L193.906 447.693L196.951 443.727L138.907 399.154L135.861 403.12Z" fill="#F1F1F1" mask="url(#path-11-inside-6_232_43)"/>
<mask id="path-13-outside-7_232_43" maskUnits="userSpaceOnUse" x="141.622" y="445.203" width="127.046" height="128.151" fill="black">
<rect fill="white" x="141.622" y="445.203" width="127.046" height="128.151"/>
<path d="M259.545 498.097C258.216 502.114 256.204 505.981 253.482 509.526L233.973 534.932C220.941 551.903 196.618 555.096 179.647 542.064C162.675 529.032 159.482 504.709 172.514 487.738L192.024 462.332C194.746 458.787 197.963 455.845 201.5 453.525L259.545 498.097Z"/>
</mask>
<path d="M259.545 498.097C258.216 502.114 256.204 505.981 253.482 509.526L233.973 534.932C220.941 551.903 196.618 555.096 179.647 542.064C162.675 529.032 159.482 504.709 172.514 487.738L192.024 462.332C194.746 458.787 197.963 455.845 201.5 453.525L259.545 498.097Z" fill="#F1F1F1"/>
<path d="M259.545 498.097L264.292 499.668L265.407 496.295L262.59 494.132L259.545 498.097ZM253.482 509.526L249.516 506.481L253.482 509.526ZM233.973 534.932L237.939 537.977L233.973 534.932ZM179.647 542.064L176.601 546.03L176.601 546.03L179.647 542.064ZM172.514 487.738L168.549 484.692L172.514 487.738ZM192.024 462.332L195.989 465.377L192.024 462.332ZM201.5 453.525L204.546 449.559L201.728 447.396L198.758 449.344L201.5 453.525ZM259.545 498.097L254.798 496.527C253.642 500.021 251.891 503.388 249.516 506.481L253.482 509.526L257.448 512.571C260.517 508.574 262.79 504.207 264.292 499.668L259.545 498.097ZM253.482 509.526L249.516 506.481L230.007 531.887L233.973 534.932L237.939 537.977L257.448 512.571L253.482 509.526ZM233.973 534.932L230.007 531.887C218.657 546.668 197.473 549.449 182.692 538.098L179.647 542.064L176.601 546.03C195.763 560.744 223.224 557.138 237.939 537.977L233.973 534.932ZM179.647 542.064L182.692 538.098C167.911 526.748 165.13 505.564 176.48 490.783L172.514 487.738L168.549 484.692C153.835 503.854 157.44 531.315 176.601 546.03L179.647 542.064ZM172.514 487.738L176.48 490.783L195.989 465.377L192.024 462.332L188.058 459.287L168.549 484.692L172.514 487.738ZM192.024 462.332L195.989 465.377C198.364 462.284 201.165 459.724 204.243 457.706L201.5 453.525L198.758 449.344C194.76 451.966 191.128 455.289 188.058 459.287L192.024 462.332ZM201.5 453.525L198.455 457.49L256.499 502.063L259.545 498.097L262.59 494.132L204.546 449.559L201.5 453.525Z" fill="#F1F1F1" mask="url(#path-13-outside-7_232_43)"/>
<mask id="path-15-inside-8_232_43" fill="white">
<path d="M259.545 498.097C258.216 502.114 256.204 505.981 253.482 509.526L233.973 534.932C220.941 551.903 196.618 555.096 179.647 542.064C162.675 529.032 159.482 504.709 172.514 487.738L192.024 462.332C194.746 458.787 197.963 455.845 201.5 453.525L259.545 498.097Z"/>
</mask>
<path d="M259.545 498.097C258.216 502.114 256.204 505.981 253.482 509.526L233.973 534.932C220.941 551.903 196.618 555.096 179.647 542.064C162.675 529.032 159.482 504.709 172.514 487.738L192.024 462.332C194.746 458.787 197.963 455.845 201.5 453.525L259.545 498.097Z" fill="#F1F1F1"/>
<path d="M259.545 498.097L264.292 499.668L265.407 496.295L262.59 494.132L259.545 498.097ZM253.482 509.526L249.516 506.481L253.482 509.526ZM233.973 534.932L237.939 537.977L233.973 534.932ZM179.647 542.064L176.601 546.03L176.601 546.03L179.647 542.064ZM172.514 487.738L168.549 484.692L172.514 487.738ZM192.024 462.332L195.989 465.377L192.024 462.332ZM201.5 453.525L204.546 449.559L201.728 447.396L198.758 449.344L201.5 453.525ZM259.545 498.097L254.798 496.527C253.642 500.021 251.891 503.388 249.516 506.481L253.482 509.526L257.448 512.571C260.517 508.574 262.79 504.207 264.292 499.668L259.545 498.097ZM253.482 509.526L249.516 506.481L230.007 531.887L233.973 534.932L237.939 537.977L257.448 512.571L253.482 509.526ZM233.973 534.932L230.007 531.887C218.657 546.668 197.473 549.449 182.692 538.098L179.647 542.064L176.601 546.03C195.763 560.744 223.224 557.138 237.939 537.977L233.973 534.932ZM179.647 542.064L182.692 538.098C167.911 526.748 165.13 505.564 176.48 490.783L172.514 487.738L168.549 484.692C153.835 503.854 157.44 531.315 176.601 546.03L179.647 542.064ZM172.514 487.738L176.48 490.783L195.989 465.377L192.024 462.332L188.058 459.287L168.549 484.692L172.514 487.738ZM192.024 462.332L195.989 465.377C198.364 462.284 201.165 459.724 204.243 457.706L201.5 453.525L198.758 449.344C194.76 451.966 191.128 455.289 188.058 459.287L192.024 462.332ZM201.5 453.525L198.455 457.49L256.499 502.063L259.545 498.097L262.59 494.132L204.546 449.559L201.5 453.525Z" fill="#F1F1F1" mask="url(#path-15-inside-8_232_43)"/>
</g>
<g filter="url(#filter1_d_232_43)">
<mask id="path-17-outside-9_232_43" maskUnits="userSpaceOnUse" x="230.056" y="449.024" width="127.202" height="125.61" fill="black">
<rect fill="white" x="230.056" y="449.024" width="127.202" height="125.61"/>
<path d="M279.326 458.173C283.412 459.266 287.39 461.048 291.087 463.559L317.586 481.555C335.288 493.577 339.893 517.672 327.871 535.374C315.85 553.075 291.754 557.68 274.053 545.659L247.554 527.663C243.856 525.152 240.732 522.113 238.21 518.717L279.326 458.173Z"/>
</mask>
<path d="M279.326 458.173C283.412 459.266 287.39 461.048 291.087 463.559L317.586 481.555C335.288 493.577 339.893 517.672 327.871 535.374C315.85 553.075 291.754 557.68 274.053 545.659L247.554 527.663C243.856 525.152 240.732 522.113 238.21 518.717L279.326 458.173Z" fill="#F1F1F1"/>
<path d="M279.326 458.173L280.617 453.343L277.185 452.426L275.189 455.364L279.326 458.173ZM327.871 535.374L332.008 538.183L332.008 538.183L327.871 535.374ZM238.21 518.717L234.073 515.908L232.078 518.846L234.196 521.698L238.21 518.717ZM279.326 458.173L278.034 463.004C281.59 463.954 285.053 465.505 288.278 467.696L291.087 463.559L293.896 459.423C289.727 456.592 285.235 454.577 280.617 453.343L279.326 458.173ZM291.087 463.559L288.278 467.696L314.777 485.692L317.586 481.555L320.395 477.419L293.896 459.423L291.087 463.559ZM317.586 481.555L314.777 485.692C330.195 496.162 334.205 517.148 323.735 532.565L327.871 535.374L332.008 538.183C345.58 518.197 340.382 490.992 320.395 477.419L317.586 481.555ZM327.871 535.374L323.735 532.565C313.265 547.982 292.279 551.992 276.862 541.522L274.053 545.659L271.244 549.795C291.23 563.368 318.435 558.169 332.008 538.183L327.871 535.374ZM274.053 545.659L276.862 541.522L250.363 523.526L247.554 527.663L244.745 531.799L271.244 549.795L274.053 545.659ZM247.554 527.663L250.363 523.526C247.137 521.336 244.418 518.689 242.224 515.735L238.21 518.717L234.196 521.698C237.047 525.536 240.576 528.968 244.745 531.799L247.554 527.663ZM238.21 518.717L242.346 521.526L283.462 460.983L279.326 458.173L275.189 455.364L234.073 515.908L238.21 518.717Z" fill="#F1F1F1" mask="url(#path-17-outside-9_232_43)"/>
<mask id="path-19-inside-10_232_43" fill="white">
<path d="M279.326 458.173C283.412 459.266 287.39 461.048 291.087 463.559L317.586 481.555C335.288 493.577 339.893 517.672 327.871 535.374C315.85 553.075 291.754 557.68 274.053 545.659L247.554 527.663C243.856 525.152 240.732 522.113 238.21 518.717L279.326 458.173Z"/>
</mask>
<path d="M279.326 458.173C283.412 459.266 287.39 461.048 291.087 463.559L317.586 481.555C335.288 493.577 339.893 517.672 327.871 535.374C315.85 553.075 291.754 557.68 274.053 545.659L247.554 527.663C243.856 525.152 240.732 522.113 238.21 518.717L279.326 458.173Z" fill="#F1F1F1"/>
<path d="M279.326 458.173L280.617 453.343L277.185 452.426L275.189 455.364L279.326 458.173ZM327.871 535.374L332.008 538.183L332.008 538.183L327.871 535.374ZM238.21 518.717L234.073 515.908L232.078 518.846L234.196 521.698L238.21 518.717ZM279.326 458.173L278.034 463.004C281.59 463.954 285.053 465.505 288.278 467.696L291.087 463.559L293.896 459.423C289.727 456.592 285.235 454.577 280.617 453.343L279.326 458.173ZM291.087 463.559L288.278 467.696L314.777 485.692L317.586 481.555L320.395 477.419L293.896 459.423L291.087 463.559ZM317.586 481.555L314.777 485.692C330.195 496.162 334.205 517.148 323.735 532.565L327.871 535.374L332.008 538.183C345.58 518.197 340.382 490.992 320.395 477.419L317.586 481.555ZM327.871 535.374L323.735 532.565C313.265 547.982 292.279 551.992 276.862 541.522L274.053 545.659L271.244 549.795C291.23 563.368 318.435 558.169 332.008 538.183L327.871 535.374ZM274.053 545.659L276.862 541.522L250.363 523.526L247.554 527.663L244.745 531.799L271.244 549.795L274.053 545.659ZM247.554 527.663L250.363 523.526C247.137 521.336 244.418 518.689 242.224 515.735L238.21 518.717L234.196 521.698C237.047 525.536 240.576 528.968 244.745 531.799L247.554 527.663ZM238.21 518.717L242.346 521.526L283.462 460.983L279.326 458.173L275.189 455.364L234.073 515.908L238.21 518.717Z" fill="#F1F1F1" mask="url(#path-19-inside-10_232_43)"/>
<mask id="path-21-outside-11_232_43" maskUnits="userSpaceOnUse" x="276.55" y="380.56" width="127.202" height="125.61" fill="black">
<rect fill="white" x="276.55" y="380.56" width="127.202" height="125.61"/>
<path d="M325.82 389.709C329.907 390.801 333.885 392.584 337.582 395.095L364.081 413.091C381.783 425.113 386.388 449.208 374.366 466.91C362.345 484.611 338.249 489.216 320.548 477.195L294.049 459.199C290.351 456.687 287.227 453.648 284.704 450.251L325.82 389.709Z"/>
</mask>
<path d="M325.82 389.709C329.907 390.801 333.885 392.584 337.582 395.095L364.081 413.091C381.783 425.113 386.388 449.208 374.366 466.91C362.345 484.611 338.249 489.216 320.548 477.195L294.049 459.199C290.351 456.687 287.227 453.648 284.704 450.251L325.82 389.709Z" fill="#F1F1F1"/>
<path d="M325.82 389.709L327.111 384.878L323.679 383.961L321.683 386.9L325.82 389.709ZM374.366 466.91L378.503 469.719L378.503 469.719L374.366 466.91ZM320.548 477.195L323.357 473.058L320.548 477.195ZM294.049 459.199L291.239 463.335L294.049 459.199ZM284.704 450.251L280.568 447.442L278.572 450.381L280.69 453.232L284.704 450.251ZM325.82 389.709L324.529 394.539C328.084 395.49 331.547 397.041 334.773 399.231L337.582 395.095L340.391 390.959C336.222 388.127 331.73 386.113 327.111 384.878L325.82 389.709ZM337.582 395.095L334.773 399.231L361.272 417.228L364.081 413.091L366.89 408.955L340.391 390.959L337.582 395.095ZM364.081 413.091L361.272 417.228C376.69 427.698 380.7 448.684 370.23 464.101L374.366 466.91L378.503 469.719C392.075 449.733 386.876 422.528 366.89 408.955L364.081 413.091ZM374.366 466.91L370.23 464.101C359.76 479.518 338.774 483.528 323.357 473.058L320.548 477.195L317.739 481.331C337.725 494.904 364.93 489.705 378.503 469.719L374.366 466.91ZM320.548 477.195L323.357 473.058L296.858 455.062L294.049 459.199L291.239 463.335L317.739 481.331L320.548 477.195ZM294.049 459.199L296.858 455.062C293.632 452.872 290.913 450.225 288.718 447.27L284.704 450.251L280.69 453.232C283.541 457.071 287.07 460.503 291.239 463.335L294.049 459.199ZM284.704 450.251L288.841 453.06L329.956 392.518L325.82 389.709L321.683 386.9L280.568 447.442L284.704 450.251Z" fill="#F1F1F1" mask="url(#path-21-outside-11_232_43)"/>
<mask id="path-23-inside-12_232_43" fill="white">
<path d="M325.82 389.709C329.907 390.801 333.885 392.584 337.582 395.095L364.081 413.091C381.783 425.113 386.388 449.208 374.366 466.91C362.345 484.611 338.249 489.216 320.548 477.195L294.049 459.199C290.351 456.687 287.227 453.648 284.704 450.251L325.82 389.709Z"/>
</mask>
<path d="M325.82 389.709C329.907 390.801 333.885 392.584 337.582 395.095L364.081 413.091C381.783 425.113 386.388 449.208 374.366 466.91C362.345 484.611 338.249 489.216 320.548 477.195L294.049 459.199C290.351 456.687 287.227 453.648 284.704 450.251L325.82 389.709Z" fill="#F1F1F1"/>
<path d="M325.82 389.709L327.111 384.878L323.679 383.961L321.683 386.9L325.82 389.709ZM374.366 466.91L378.503 469.719L378.503 469.719L374.366 466.91ZM320.548 477.195L323.357 473.058L320.548 477.195ZM294.049 459.199L291.239 463.335L294.049 459.199ZM284.704 450.251L280.568 447.442L278.572 450.381L280.69 453.232L284.704 450.251ZM325.82 389.709L324.529 394.539C328.084 395.49 331.547 397.041 334.773 399.231L337.582 395.095L340.391 390.959C336.222 388.127 331.73 386.113 327.111 384.878L325.82 389.709ZM337.582 395.095L334.773 399.231L361.272 417.228L364.081 413.091L366.89 408.955L340.391 390.959L337.582 395.095ZM364.081 413.091L361.272 417.228C376.69 427.698 380.7 448.684 370.23 464.101L374.366 466.91L378.503 469.719C392.075 449.733 386.876 422.528 366.89 408.955L364.081 413.091ZM374.366 466.91L370.23 464.101C359.76 479.518 338.774 483.528 323.357 473.058L320.548 477.195L317.739 481.331C337.725 494.904 364.93 489.705 378.503 469.719L374.366 466.91ZM320.548 477.195L323.357 473.058L296.858 455.062L294.049 459.199L291.239 463.335L317.739 481.331L320.548 477.195ZM294.049 459.199L296.858 455.062C293.632 452.872 290.913 450.225 288.718 447.27L284.704 450.251L280.69 453.232C283.541 457.071 287.07 460.503 291.239 463.335L294.049 459.199ZM284.704 450.251L288.841 453.06L329.956 392.518L325.82 389.709L321.683 386.9L280.568 447.442L284.704 450.251Z" fill="#F1F1F1" mask="url(#path-23-inside-12_232_43)"/>
<mask id="path-25-outside-13_232_43" maskUnits="userSpaceOnUse" x="323.045" y="312.096" width="127.202" height="125.61" fill="black">
<rect fill="white" x="323.045" y="312.096" width="127.202" height="125.61"/>
<path d="M372.315 321.245C376.402 322.337 380.38 324.12 384.077 326.631L410.576 344.627C428.278 356.649 432.883 380.744 420.861 398.446C408.84 416.147 384.744 420.752 367.043 408.731L340.544 390.735C336.846 388.223 333.722 385.184 331.199 381.787L372.315 321.245Z"/>
</mask>
<path d="M372.315 321.245C376.402 322.337 380.38 324.12 384.077 326.631L410.576 344.627C428.278 356.649 432.883 380.744 420.861 398.446C408.84 416.147 384.744 420.752 367.043 408.731L340.544 390.735C336.846 388.223 333.722 385.184 331.199 381.787L372.315 321.245Z" fill="#F1F1F1"/>
<path d="M372.315 321.245L373.606 316.414L370.174 315.497L368.178 318.436L372.315 321.245ZM420.861 398.446L424.998 401.255L424.998 401.255L420.861 398.446ZM331.199 381.787L327.063 378.978L325.067 381.917L327.185 384.768L331.199 381.787ZM372.315 321.245L371.024 326.075C374.579 327.026 378.042 328.577 381.268 330.767L384.077 326.631L386.886 322.495C382.717 319.663 378.225 317.649 373.606 316.414L372.315 321.245ZM384.077 326.631L381.268 330.767L407.767 348.763L410.576 344.627L413.385 340.491L386.886 322.495L384.077 326.631ZM410.576 344.627L407.767 348.763C423.185 359.234 427.195 380.219 416.725 395.637L420.861 398.446L424.998 401.255C438.57 381.269 433.372 354.064 413.385 340.491L410.576 344.627ZM420.861 398.446L416.725 395.637C406.255 411.054 385.269 415.064 369.852 404.594L367.043 408.731L364.234 412.867C384.22 426.44 411.425 421.241 424.998 401.255L420.861 398.446ZM367.043 408.731L369.852 404.594L343.353 386.598L340.544 390.735L337.735 394.871L364.234 412.867L367.043 408.731ZM340.544 390.735L343.353 386.598C340.127 384.408 337.408 381.76 335.213 378.806L331.199 381.787L327.185 384.768C330.036 388.607 333.565 392.039 337.735 394.871L340.544 390.735ZM331.199 381.787L335.336 384.596L376.451 324.054L372.315 321.245L368.178 318.436L327.063 378.978L331.199 381.787Z" fill="#F1F1F1" mask="url(#path-25-outside-13_232_43)"/>
<mask id="path-27-inside-14_232_43" fill="white">
<path d="M372.315 321.245C376.402 322.337 380.38 324.12 384.077 326.631L410.576 344.627C428.278 356.649 432.883 380.744 420.861 398.446C408.84 416.147 384.744 420.752 367.043 408.731L340.544 390.735C336.846 388.223 333.722 385.184 331.199 381.787L372.315 321.245Z"/>
</mask>
<path d="M372.315 321.245C376.402 322.337 380.38 324.12 384.077 326.631L410.576 344.627C428.278 356.649 432.883 380.744 420.861 398.446C408.84 416.147 384.744 420.752 367.043 408.731L340.544 390.735C336.846 388.223 333.722 385.184 331.199 381.787L372.315 321.245Z" fill="#F1F1F1"/>
<path d="M372.315 321.245L373.606 316.414L370.174 315.497L368.178 318.436L372.315 321.245ZM420.861 398.446L424.998 401.255L424.998 401.255L420.861 398.446ZM331.199 381.787L327.063 378.978L325.067 381.917L327.185 384.768L331.199 381.787ZM372.315 321.245L371.024 326.075C374.579 327.026 378.042 328.577 381.268 330.767L384.077 326.631L386.886 322.495C382.717 319.663 378.225 317.649 373.606 316.414L372.315 321.245ZM384.077 326.631L381.268 330.767L407.767 348.763L410.576 344.627L413.385 340.491L386.886 322.495L384.077 326.631ZM410.576 344.627L407.767 348.763C423.185 359.234 427.195 380.219 416.725 395.637L420.861 398.446L424.998 401.255C438.57 381.269 433.372 354.064 413.385 340.491L410.576 344.627ZM420.861 398.446L416.725 395.637C406.255 411.054 385.269 415.064 369.852 404.594L367.043 408.731L364.234 412.867C384.22 426.44 411.425 421.241 424.998 401.255L420.861 398.446ZM367.043 408.731L369.852 404.594L343.353 386.598L340.544 390.735L337.735 394.871L364.234 412.867L367.043 408.731ZM340.544 390.735L343.353 386.598C340.127 384.408 337.408 381.76 335.213 378.806L331.199 381.787L327.185 384.768C330.036 388.607 333.565 392.039 337.735 394.871L340.544 390.735ZM331.199 381.787L335.336 384.596L376.451 324.054L372.315 321.245L368.178 318.436L327.063 378.978L331.199 381.787Z" fill="#F1F1F1" mask="url(#path-27-inside-14_232_43)"/>
<mask id="path-29-outside-15_232_43" maskUnits="userSpaceOnUse" x="369.54" y="243.632" width="127.202" height="125.61" fill="black">
<rect fill="white" x="369.54" y="243.632" width="127.202" height="125.61"/>
<path d="M418.81 252.781C422.897 253.873 426.875 255.656 430.572 258.167L457.072 276.163C474.773 288.185 479.378 312.28 467.356 329.982C455.335 347.683 431.239 352.288 413.538 340.267L387.039 322.271C383.341 319.76 380.217 316.72 377.695 313.323L418.81 252.781Z"/>
</mask>
<path d="M418.81 252.781C422.897 253.873 426.875 255.656 430.572 258.167L457.072 276.163C474.773 288.185 479.378 312.28 467.356 329.982C455.335 347.683 431.239 352.288 413.538 340.267L387.039 322.271C383.341 319.76 380.217 316.72 377.695 313.323L418.81 252.781Z" fill="#F1F1F1"/>
<path d="M418.81 252.781L420.101 247.95L416.669 247.033L414.673 249.972L418.81 252.781ZM467.356 329.982L471.493 332.791L471.493 332.791L467.356 329.982ZM413.538 340.267L416.347 336.13L413.538 340.267ZM387.039 322.271L384.23 326.407L387.039 322.271ZM377.695 313.323L373.558 310.514L371.563 313.453L373.681 316.304L377.695 313.323ZM418.81 252.781L417.519 257.611C421.074 258.562 424.537 260.113 427.763 262.304L430.572 258.167L433.381 254.031C429.212 251.199 424.72 249.185 420.101 247.95L418.81 252.781ZM430.572 258.167L427.763 262.304L454.262 280.3L457.072 276.163L459.881 272.027L433.381 254.031L430.572 258.167ZM457.072 276.163L454.262 280.3C469.68 290.77 473.69 311.756 463.22 327.173L467.356 329.982L471.493 332.791C485.066 312.805 479.867 285.6 459.881 272.027L457.072 276.163ZM467.356 329.982L463.22 327.173C452.75 342.59 431.764 346.6 416.347 336.13L413.538 340.267L410.729 344.403C430.715 357.976 457.92 352.777 471.493 332.791L467.356 329.982ZM413.538 340.267L416.347 336.13L389.848 318.134L387.039 322.271L384.23 326.407L410.729 344.403L413.538 340.267ZM387.039 322.271L389.848 318.134C386.622 315.944 383.903 313.297 381.709 310.342L377.695 313.323L373.681 316.304C376.531 320.143 380.06 323.576 384.23 326.407L387.039 322.271ZM377.695 313.323L381.831 316.132L422.946 255.59L418.81 252.781L414.673 249.972L373.558 310.514L377.695 313.323Z" fill="#F1F1F1" mask="url(#path-29-outside-15_232_43)"/>
<mask id="path-31-inside-16_232_43" fill="white">
<path d="M418.81 252.781C422.897 253.873 426.875 255.656 430.572 258.167L457.072 276.163C474.773 288.185 479.378 312.28 467.356 329.982C455.335 347.683 431.239 352.288 413.538 340.267L387.039 322.271C383.341 319.76 380.217 316.72 377.695 313.323L418.81 252.781Z"/>
</mask>
<path d="M418.81 252.781C422.897 253.873 426.875 255.656 430.572 258.167L457.072 276.163C474.773 288.185 479.378 312.28 467.356 329.982C455.335 347.683 431.239 352.288 413.538 340.267L387.039 322.271C383.341 319.76 380.217 316.72 377.695 313.323L418.81 252.781Z" fill="#F1F1F1"/>
<path d="M418.81 252.781L420.101 247.95L416.669 247.033L414.673 249.972L418.81 252.781ZM467.356 329.982L471.493 332.791L471.493 332.791L467.356 329.982ZM413.538 340.267L416.347 336.13L413.538 340.267ZM387.039 322.271L384.23 326.407L387.039 322.271ZM377.695 313.323L373.558 310.514L371.563 313.453L373.681 316.304L377.695 313.323ZM418.81 252.781L417.519 257.611C421.074 258.562 424.537 260.113 427.763 262.304L430.572 258.167L433.381 254.031C429.212 251.199 424.72 249.185 420.101 247.95L418.81 252.781ZM430.572 258.167L427.763 262.304L454.262 280.3L457.072 276.163L459.881 272.027L433.381 254.031L430.572 258.167ZM457.072 276.163L454.262 280.3C469.68 290.77 473.69 311.756 463.22 327.173L467.356 329.982L471.493 332.791C485.066 312.805 479.867 285.6 459.881 272.027L457.072 276.163ZM467.356 329.982L463.22 327.173C452.75 342.59 431.764 346.6 416.347 336.13L413.538 340.267L410.729 344.403C430.715 357.976 457.92 352.777 471.493 332.791L467.356 329.982ZM413.538 340.267L416.347 336.13L389.848 318.134L387.039 322.271L384.23 326.407L410.729 344.403L413.538 340.267ZM387.039 322.271L389.848 318.134C386.622 315.944 383.903 313.297 381.709 310.342L377.695 313.323L373.681 316.304C376.531 320.143 380.06 323.576 384.23 326.407L387.039 322.271ZM377.695 313.323L381.831 316.132L422.946 255.59L418.81 252.781L414.673 249.972L373.558 310.514L377.695 313.323Z" fill="#F1F1F1" mask="url(#path-31-inside-16_232_43)"/>
</g>
<g filter="url(#filter2_d_232_43)">
<mask id="path-33-outside-17_232_43" maskUnits="userSpaceOnUse" x="436.056" y="143.024" width="127.202" height="125.61" fill="black">
<rect fill="white" x="436.056" y="143.024" width="127.202" height="125.61"/>
<path d="M485.326 152.173C489.413 153.266 493.39 155.048 497.087 157.559L523.587 175.555C541.288 187.577 545.893 211.672 533.871 229.374C521.85 247.075 497.754 251.68 480.053 239.659L453.554 221.663C449.856 219.152 446.732 216.113 444.21 212.717L485.326 152.173Z"/>
</mask>
<path d="M485.326 152.173C489.413 153.266 493.39 155.048 497.087 157.559L523.587 175.555C541.288 187.577 545.893 211.672 533.871 229.374C521.85 247.075 497.754 251.68 480.053 239.659L453.554 221.663C449.856 219.152 446.732 216.113 444.21 212.717L485.326 152.173Z" fill="#F1F1F1"/>
<path d="M485.326 152.173L486.617 147.343L483.185 146.426L481.189 149.364L485.326 152.173ZM497.087 157.559L499.896 153.423L497.087 157.559ZM523.587 175.555L520.777 179.692L523.587 175.555ZM533.871 229.374L538.008 232.183L538.008 232.183L533.871 229.374ZM480.053 239.659L482.862 235.522L480.053 239.659ZM453.554 221.663L450.745 225.799L453.554 221.663ZM444.21 212.717L440.073 209.907L438.078 212.846L440.196 215.698L444.21 212.717ZM485.326 152.173L484.034 157.004C487.59 157.954 491.053 159.505 494.278 161.696L497.087 157.559L499.896 153.423C495.727 150.591 491.235 148.577 486.617 147.343L485.326 152.173ZM497.087 157.559L494.278 161.696L520.777 179.692L523.587 175.555L526.396 171.419L499.896 153.423L497.087 157.559ZM523.587 175.555L520.777 179.692C536.195 190.162 540.205 211.148 529.735 226.565L533.871 229.374L538.008 232.183C551.58 212.197 546.382 184.992 526.396 171.419L523.587 175.555ZM533.871 229.374L529.735 226.565C519.265 241.982 498.279 245.992 482.862 235.522L480.053 239.659L477.244 243.795C497.23 257.368 524.435 252.169 538.008 232.183L533.871 229.374ZM480.053 239.659L482.862 235.522L456.363 217.526L453.554 221.663L450.745 225.799L477.244 243.795L480.053 239.659ZM453.554 221.663L456.363 217.526C453.137 215.336 450.418 212.689 448.224 209.735L444.21 212.717L440.196 215.698C443.047 219.536 446.576 222.968 450.745 225.799L453.554 221.663ZM444.21 212.717L448.346 215.526L489.462 154.982L485.326 152.173L481.189 149.364L440.073 209.907L444.21 212.717Z" fill="#F1F1F1" mask="url(#path-33-outside-17_232_43)"/>
<mask id="path-35-inside-18_232_43" fill="white">
<path d="M485.326 152.173C489.413 153.266 493.39 155.048 497.087 157.559L523.587 175.555C541.288 187.577 545.893 211.672 533.871 229.374C521.85 247.075 497.754 251.68 480.053 239.659L453.554 221.663C449.856 219.152 446.732 216.113 444.21 212.717L485.326 152.173Z"/>
</mask>
<path d="M485.326 152.173C489.413 153.266 493.39 155.048 497.087 157.559L523.587 175.555C541.288 187.577 545.893 211.672 533.871 229.374C521.85 247.075 497.754 251.68 480.053 239.659L453.554 221.663C449.856 219.152 446.732 216.113 444.21 212.717L485.326 152.173Z" fill="#F1F1F1"/>
<path d="M485.326 152.173L486.617 147.343L483.185 146.426L481.189 149.364L485.326 152.173ZM497.087 157.559L499.896 153.423L497.087 157.559ZM523.587 175.555L520.777 179.692L523.587 175.555ZM533.871 229.374L538.008 232.183L538.008 232.183L533.871 229.374ZM480.053 239.659L482.862 235.522L480.053 239.659ZM453.554 221.663L450.745 225.799L453.554 221.663ZM444.21 212.717L440.073 209.907L438.078 212.846L440.196 215.698L444.21 212.717ZM485.326 152.173L484.034 157.004C487.59 157.954 491.053 159.505 494.278 161.696L497.087 157.559L499.896 153.423C495.727 150.591 491.235 148.577 486.617 147.343L485.326 152.173ZM497.087 157.559L494.278 161.696L520.777 179.692L523.587 175.555L526.396 171.419L499.896 153.423L497.087 157.559ZM523.587 175.555L520.777 179.692C536.195 190.162 540.205 211.148 529.735 226.565L533.871 229.374L538.008 232.183C551.58 212.197 546.382 184.992 526.396 171.419L523.587 175.555ZM533.871 229.374L529.735 226.565C519.265 241.982 498.279 245.992 482.862 235.522L480.053 239.659L477.244 243.795C497.23 257.368 524.435 252.169 538.008 232.183L533.871 229.374ZM480.053 239.659L482.862 235.522L456.363 217.526L453.554 221.663L450.745 225.799L477.244 243.795L480.053 239.659ZM453.554 221.663L456.363 217.526C453.137 215.336 450.418 212.689 448.224 209.735L444.21 212.717L440.196 215.698C443.047 219.536 446.576 222.968 450.745 225.799L453.554 221.663ZM444.21 212.717L448.346 215.526L489.462 154.982L485.326 152.173L481.189 149.364L440.073 209.907L444.21 212.717Z" fill="#F1F1F1" mask="url(#path-35-inside-18_232_43)"/>
<mask id="path-37-outside-19_232_43" maskUnits="userSpaceOnUse" x="482.55" y="74.5594" width="127.202" height="125.61" fill="black">
<rect fill="white" x="482.55" y="74.5594" width="127.202" height="125.61"/>
<path d="M531.82 83.7087C535.907 84.8011 539.885 86.584 543.582 89.0951L570.081 107.091C587.783 119.113 592.388 143.208 580.366 160.91C568.345 178.611 544.249 183.216 526.548 171.195L500.049 153.199C496.351 150.687 493.227 147.647 490.705 144.251L531.82 83.7087Z"/>
</mask>
<path d="M531.82 83.7087C535.907 84.8011 539.885 86.584 543.582 89.0951L570.081 107.091C587.783 119.113 592.388 143.208 580.366 160.91C568.345 178.611 544.249 183.216 526.548 171.195L500.049 153.199C496.351 150.687 493.227 147.647 490.705 144.251L531.82 83.7087Z" fill="#F1F1F1"/>
<path d="M531.82 83.7087L533.111 78.8783L529.679 77.9611L527.683 80.8997L531.82 83.7087ZM543.582 89.0951L540.773 93.2314L543.582 89.0951ZM570.081 107.091L572.891 102.955L570.081 107.091ZM580.366 160.91L584.503 163.719L584.503 163.719L580.366 160.91ZM526.548 171.195L529.357 167.058L526.548 171.195ZM500.049 153.199L497.24 157.335L500.049 153.199ZM490.705 144.251L486.568 141.442L484.573 144.381L486.691 147.232L490.705 144.251ZM531.82 83.7087L530.529 88.5392C534.084 89.4894 537.547 91.0407 540.773 93.2314L543.582 89.0951L546.391 84.9587C542.222 82.1273 537.73 80.1127 533.111 78.8783L531.82 83.7087ZM543.582 89.0951L540.773 93.2314L567.272 111.227L570.081 107.091L572.891 102.955L546.391 84.9587L543.582 89.0951ZM570.081 107.091L567.272 111.227C582.69 121.697 586.7 142.683 576.23 158.101L580.366 160.91L584.503 163.719C598.075 143.733 592.877 116.528 572.891 102.955L570.081 107.091ZM580.366 160.91L576.23 158.101C565.76 173.518 544.774 177.528 529.357 167.058L526.548 171.195L523.739 175.331C543.725 188.904 570.93 183.705 584.503 163.719L580.366 160.91ZM526.548 171.195L529.357 167.058L502.858 149.062L500.049 153.199L497.24 157.335L523.739 175.331L526.548 171.195ZM500.049 153.199L502.858 149.062C499.632 146.871 496.913 144.224 494.719 141.27L490.705 144.251L486.691 147.232C489.541 151.071 493.07 154.503 497.24 157.335L500.049 153.199ZM490.705 144.251L494.841 147.06L535.956 86.5178L531.82 83.7087L527.683 80.8997L486.568 141.442L490.705 144.251Z" fill="#F1F1F1" mask="url(#path-37-outside-19_232_43)"/>
<mask id="path-39-inside-20_232_43" fill="white">
<path d="M531.82 83.7087C535.907 84.8011 539.885 86.584 543.582 89.0951L570.081 107.091C587.783 119.113 592.388 143.208 580.366 160.91C568.345 178.611 544.249 183.216 526.548 171.195L500.049 153.199C496.351 150.687 493.227 147.647 490.705 144.251L531.82 83.7087Z"/>
</mask>
<path d="M531.82 83.7087C535.907 84.8011 539.885 86.584 543.582 89.0951L570.081 107.091C587.783 119.113 592.388 143.208 580.366 160.91C568.345 178.611 544.249 183.216 526.548 171.195L500.049 153.199C496.351 150.687 493.227 147.647 490.705 144.251L531.82 83.7087Z" fill="#F1F1F1"/>
<path d="M531.82 83.7087L533.111 78.8783L529.679 77.9611L527.683 80.8997L531.82 83.7087ZM543.582 89.0951L540.773 93.2314L543.582 89.0951ZM570.081 107.091L572.891 102.955L570.081 107.091ZM580.366 160.91L584.503 163.719L584.503 163.719L580.366 160.91ZM526.548 171.195L529.357 167.058L526.548 171.195ZM500.049 153.199L497.24 157.335L500.049 153.199ZM490.705 144.251L486.568 141.442L484.573 144.381L486.691 147.232L490.705 144.251ZM531.82 83.7087L530.529 88.5392C534.084 89.4894 537.547 91.0407 540.773 93.2314L543.582 89.0951L546.391 84.9587C542.222 82.1273 537.73 80.1127 533.111 78.8783L531.82 83.7087ZM543.582 89.0951L540.773 93.2314L567.272 111.227L570.081 107.091L572.891 102.955L546.391 84.9587L543.582 89.0951ZM570.081 107.091L567.272 111.227C582.69 121.697 586.7 142.683 576.23 158.101L580.366 160.91L584.503 163.719C598.075 143.733 592.877 116.528 572.891 102.955L570.081 107.091ZM580.366 160.91L576.23 158.101C565.76 173.518 544.774 177.528 529.357 167.058L526.548 171.195L523.739 175.331C543.725 188.904 570.93 183.705 584.503 163.719L580.366 160.91ZM526.548 171.195L529.357 167.058L502.858 149.062L500.049 153.199L497.24 157.335L523.739 175.331L526.548 171.195ZM500.049 153.199L502.858 149.062C499.632 146.871 496.913 144.224 494.719 141.27L490.705 144.251L486.691 147.232C489.541 151.071 493.07 154.503 497.24 157.335L500.049 153.199ZM490.705 144.251L494.841 147.06L535.956 86.5178L531.82 83.7087L527.683 80.8997L486.568 141.442L490.705 144.251Z" fill="#F1F1F1" mask="url(#path-39-inside-20_232_43)"/>
<mask id="path-41-outside-21_232_43" maskUnits="userSpaceOnUse" x="529.045" y="6.09543" width="127.202" height="125.61" fill="black">
<rect fill="white" x="529.045" y="6.09543" width="127.202" height="125.61"/>
<path d="M578.315 15.2447C582.402 16.3371 586.38 18.12 590.077 20.6311L616.576 38.6271C634.278 50.6485 638.883 74.744 626.861 92.4456C614.84 110.147 590.744 114.752 573.043 102.731L546.544 84.7345C542.846 82.2234 539.722 79.1834 537.2 75.787L578.315 15.2447Z"/>
</mask>
<path d="M578.315 15.2447C582.402 16.3371 586.38 18.12 590.077 20.6311L616.576 38.6271C634.278 50.6485 638.883 74.744 626.861 92.4456C614.84 110.147 590.744 114.752 573.043 102.731L546.544 84.7345C542.846 82.2234 539.722 79.1834 537.2 75.787L578.315 15.2447Z" fill="#F1F1F1"/>
<path d="M578.315 15.2447L579.606 10.4142L576.174 9.49706L574.178 12.4356L578.315 15.2447ZM626.861 92.4456L630.998 95.2547L630.998 95.2547L626.861 92.4456ZM537.2 75.787L533.063 72.978L531.068 75.9166L533.186 78.7682L537.2 75.787ZM578.315 15.2447L577.024 20.0751C580.579 21.0254 584.042 22.5767 587.268 24.7674L590.077 20.6311L592.886 16.4947C588.717 13.6633 584.225 11.6487 579.606 10.4142L578.315 15.2447ZM590.077 20.6311L587.268 24.7674L613.767 42.7634L616.576 38.6271L619.386 34.4907L592.886 16.4947L590.077 20.6311ZM616.576 38.6271L613.767 42.7634C629.185 53.2335 633.195 74.2194 622.725 89.6366L626.861 92.4456L630.998 95.2547C644.571 75.2686 639.372 48.0636 619.386 34.4907L616.576 38.6271ZM626.861 92.4456L622.725 89.6366C612.255 105.054 591.269 109.064 575.852 98.5942L573.043 102.731L570.234 106.867C590.22 120.44 617.425 115.241 630.998 95.2547L626.861 92.4456ZM573.043 102.731L575.852 98.5942L549.353 80.5982L546.544 84.7345L543.735 88.8708L570.234 106.867L573.043 102.731ZM546.544 84.7345L549.353 80.5982C546.127 78.4074 543.408 75.7604 541.214 72.8058L537.2 75.787L533.186 78.7682C536.036 82.6065 539.565 86.0394 543.735 88.8708L546.544 84.7345ZM537.2 75.787L541.336 78.5961L582.451 18.0537L578.315 15.2447L574.178 12.4356L533.063 72.978L537.2 75.787Z" fill="#F1F1F1" mask="url(#path-41-outside-21_232_43)"/>
<mask id="path-43-inside-22_232_43" fill="white">
<path d="M578.315 15.2447C582.402 16.3371 586.38 18.12 590.077 20.6311L616.576 38.6271C634.278 50.6485 638.883 74.744 626.861 92.4456C614.84 110.147 590.744 114.752 573.043 102.731L546.544 84.7345C542.846 82.2234 539.722 79.1834 537.2 75.787L578.315 15.2447Z"/>
</mask>
<path d="M578.315 15.2447C582.402 16.3371 586.38 18.12 590.077 20.6311L616.576 38.6271C634.278 50.6485 638.883 74.744 626.861 92.4456C614.84 110.147 590.744 114.752 573.043 102.731L546.544 84.7345C542.846 82.2234 539.722 79.1834 537.2 75.787L578.315 15.2447Z" fill="#F1F1F1"/>
<path d="M578.315 15.2447L579.606 10.4142L576.174 9.49706L574.178 12.4356L578.315 15.2447ZM626.861 92.4456L630.998 95.2547L630.998 95.2547L626.861 92.4456ZM537.2 75.787L533.063 72.978L531.068 75.9166L533.186 78.7682L537.2 75.787ZM578.315 15.2447L577.024 20.0751C580.579 21.0254 584.042 22.5767 587.268 24.7674L590.077 20.6311L592.886 16.4947C588.717 13.6633 584.225 11.6487 579.606 10.4142L578.315 15.2447ZM590.077 20.6311L587.268 24.7674L613.767 42.7634L616.576 38.6271L619.386 34.4907L592.886 16.4947L590.077 20.6311ZM616.576 38.6271L613.767 42.7634C629.185 53.2335 633.195 74.2194 622.725 89.6366L626.861 92.4456L630.998 95.2547C644.571 75.2686 639.372 48.0636 619.386 34.4907L616.576 38.6271ZM626.861 92.4456L622.725 89.6366C612.255 105.054 591.269 109.064 575.852 98.5942L573.043 102.731L570.234 106.867C590.22 120.44 617.425 115.241 630.998 95.2547L626.861 92.4456ZM573.043 102.731L575.852 98.5942L549.353 80.5982L546.544 84.7345L543.735 88.8708L570.234 106.867L573.043 102.731ZM546.544 84.7345L549.353 80.5982C546.127 78.4074 543.408 75.7604 541.214 72.8058L537.2 75.787L533.186 78.7682C536.036 82.6065 539.565 86.0394 543.735 88.8708L546.544 84.7345ZM537.2 75.787L541.336 78.5961L582.451 18.0537L578.315 15.2447L574.178 12.4356L533.063 72.978L537.2 75.787Z" fill="#F1F1F1" mask="url(#path-43-inside-22_232_43)"/>
<mask id="path-45-outside-23_232_43" maskUnits="userSpaceOnUse" x="575.54" y="-62.3685" width="127.202" height="125.61" fill="black">
<rect fill="white" x="575.54" y="-62.3685" width="127.202" height="125.61"/>
<path d="M624.81 -53.2192C628.897 -52.1269 632.875 -50.344 636.572 -47.8329L663.072 -29.8368C680.773 -17.8154 685.378 6.2801 673.356 23.9817C661.335 41.6833 637.24 46.2881 619.538 34.2666L593.039 16.2706C589.341 13.7595 586.217 10.7195 583.695 7.32309L624.81 -53.2192Z"/>
</mask>
<path d="M624.81 -53.2192C628.897 -52.1269 632.875 -50.344 636.572 -47.8329L663.072 -29.8368C680.773 -17.8154 685.378 6.2801 673.356 23.9817C661.335 41.6833 637.24 46.2881 619.538 34.2666L593.039 16.2706C589.341 13.7595 586.217 10.7195 583.695 7.32309L624.81 -53.2192Z" fill="#F1F1F1"/>
<path d="M624.81 -53.2192L626.101 -58.0497L622.669 -58.9669L620.674 -56.0283L624.81 -53.2192ZM673.356 23.9817L677.493 26.7908L677.493 26.7908L673.356 23.9817ZM583.695 7.32309L579.558 4.51404L577.563 7.45262L579.681 10.3043L583.695 7.32309ZM624.81 -53.2192L623.519 -48.3888C627.074 -47.4385 630.538 -45.8873 633.763 -43.6965L636.572 -47.8329L639.381 -51.9692C635.212 -54.8007 630.72 -56.8152 626.101 -58.0497L624.81 -53.2192ZM636.572 -47.8329L633.763 -43.6965L660.263 -25.7005L663.072 -29.8368L665.881 -33.9732L639.381 -51.9692L636.572 -47.8329ZM663.072 -29.8368L660.263 -25.7005C675.68 -15.2305 679.69 5.75548 669.22 21.1727L673.356 23.9817L677.493 26.7908C691.066 6.80472 685.867 -20.4003 665.881 -33.9732L663.072 -29.8368ZM673.356 23.9817L669.22 21.1727C658.75 36.5899 637.764 40.6003 622.347 30.1303L619.538 34.2666L616.729 38.4029C636.715 51.9758 663.92 46.7768 677.493 26.7908L673.356 23.9817ZM619.538 34.2666L622.347 30.1303L595.848 12.1342L593.039 16.2706L590.23 20.4069L616.729 38.4029L619.538 34.2666ZM593.039 16.2706L595.848 12.1342C592.622 9.9435 589.903 7.29647 587.709 4.34188L583.695 7.32309L579.681 10.3043C582.531 14.1425 586.06 17.5754 590.23 20.4069L593.039 16.2706ZM583.695 7.32309L587.831 10.1321L628.946 -50.4102L624.81 -53.2192L620.674 -56.0283L579.558 4.51404L583.695 7.32309Z" fill="#F1F1F1" mask="url(#path-45-outside-23_232_43)"/>
<mask id="path-47-inside-24_232_43" fill="white">
<path d="M624.81 -53.2192C628.897 -52.1269 632.875 -50.344 636.572 -47.8329L663.072 -29.8368C680.773 -17.8154 685.378 6.2801 673.356 23.9817C661.335 41.6833 637.24 46.2881 619.538 34.2666L593.039 16.2706C589.341 13.7595 586.217 10.7195 583.695 7.32309L624.81 -53.2192Z"/>
</mask>
<path d="M624.81 -53.2192C628.897 -52.1269 632.875 -50.344 636.572 -47.8329L663.072 -29.8368C680.773 -17.8154 685.378 6.2801 673.356 23.9817C661.335 41.6833 637.24 46.2881 619.538 34.2666L593.039 16.2706C589.341 13.7595 586.217 10.7195 583.695 7.32309L624.81 -53.2192Z" fill="#F1F1F1"/>
<path d="M624.81 -53.2192L626.101 -58.0497L622.669 -58.9669L620.674 -56.0283L624.81 -53.2192ZM673.356 23.9817L677.493 26.7908L677.493 26.7908L673.356 23.9817ZM583.695 7.32309L579.558 4.51404L577.563 7.45262L579.681 10.3043L583.695 7.32309ZM624.81 -53.2192L623.519 -48.3888C627.074 -47.4385 630.538 -45.8873 633.763 -43.6965L636.572 -47.8329L639.381 -51.9692C635.212 -54.8007 630.72 -56.8152 626.101 -58.0497L624.81 -53.2192ZM636.572 -47.8329L633.763 -43.6965L660.263 -25.7005L663.072 -29.8368L665.881 -33.9732L639.381 -51.9692L636.572 -47.8329ZM663.072 -29.8368L660.263 -25.7005C675.68 -15.2305 679.69 5.75548 669.22 21.1727L673.356 23.9817L677.493 26.7908C691.066 6.80472 685.867 -20.4003 665.881 -33.9732L663.072 -29.8368ZM673.356 23.9817L669.22 21.1727C658.75 36.5899 637.764 40.6003 622.347 30.1303L619.538 34.2666L616.729 38.4029C636.715 51.9758 663.92 46.7768 677.493 26.7908L673.356 23.9817ZM619.538 34.2666L622.347 30.1303L595.848 12.1342L593.039 16.2706L590.23 20.4069L616.729 38.4029L619.538 34.2666ZM593.039 16.2706L595.848 12.1342C592.622 9.9435 589.903 7.29647 587.709 4.34188L583.695 7.32309L579.681 10.3043C582.531 14.1425 586.06 17.5754 590.23 20.4069L593.039 16.2706ZM583.695 7.32309L587.831 10.1321L628.946 -50.4102L624.81 -53.2192L620.674 -56.0283L579.558 4.51404L583.695 7.32309Z" fill="#F1F1F1" mask="url(#path-47-inside-24_232_43)"/>
</g>
<rect x="247.124" y="514.555" width="607.152" height="666.431" transform="rotate(-144.799 247.124 514.555)" fill="#B4D8EE"/>
<defs>
<filter id="filter0_d_232_43" x="-41.4198" y="296.182" width="310.827" height="266.899" filterUnits="userSpaceOnUse" color-interpolation-filters="sRGB">
<feFlood flood-opacity="0" result="BackgroundImageFix"/>
<feColorMatrix in="SourceAlpha" type="matrix" values="0 0 0 0 0 0 0 0 0 0 0 0 0 0 0 0 0 0 127 0" result="hardAlpha"/>
<feOffset dy="4"/>
<feGaussianBlur stdDeviation="2"/>
<feComposite in2="hardAlpha" operator="out"/>
<feColorMatrix type="matrix" values="0 0 0 0 0 0 0 0 0 0 0 0 0 0 0 0 0 0 0.25 0"/>
<feBlend mode="normal" in2="BackgroundImageFix" result="effect1_dropShadow_232_43"/>
<feBlend mode="normal" in="SourceGraphic" in2="effect1_dropShadow_232_43" result="shape"/>
</filter>
<filter id="filter1_d_232_43" x="228.078" y="247.033" width="254.975" height="318.322" filterUnits="userSpaceOnUse" color-interpolation-filters="sRGB">
<feFlood flood-opacity="0" result="BackgroundImageFix"/>
<feColorMatrix in="SourceAlpha" type="matrix" values="0 0 0 0 0 0 0 0 0 0 0 0 0 0 0 0 0 0 127 0" result="hardAlpha"/>
<feOffset dy="4"/>
<feGaussianBlur stdDeviation="2"/>
<feComposite in2="hardAlpha" operator="out"/>
<feColorMatrix type="matrix" values="0 0 0 0 0 0 0 0 0 0 0 0 0 0 0 0 0 0 0.25 0"/>
<feBlend mode="normal" in2="BackgroundImageFix" result="effect1_dropShadow_232_43"/>
<feBlend mode="normal" in="SourceGraphic" in2="effect1_dropShadow_232_43" result="shape"/>
</filter>
<filter id="filter2_d_232_43" x="434.078" y="-58.9669" width="254.975" height="318.322" filterUnits="userSpaceOnUse" color-interpolation-filters="sRGB">
<feFlood flood-opacity="0" result="BackgroundImageFix"/>
<feColorMatrix in="SourceAlpha" type="matrix" values="0 0 0 0 0 0 0 0 0 0 0 0 0 0 0 0 0 0 127 0" result="hardAlpha"/>
<feOffset dy="4"/>
<feGaussianBlur stdDeviation="2"/>
<feComposite in2="hardAlpha" operator="out"/>
<feColorMatrix type="matrix" values="0 0 0 0 0 0 0 0 0 0 0 0 0 0 0 0 0 0 0.25 0"/>
<feBlend mode="normal" in2="BackgroundImageFix" result="effect1_dropShadow_232_43"/>
<feBlend mode="normal" in="SourceGraphic" in2="effect1_dropShadow_232_43" result="shape"/>
</filter>
</defs>
</svg>
