<?xml version="1.0" encoding="UTF-8" standalone="no"?>
<!DOCTYPE svg PUBLIC "-//W3C//DTD SVG 1.1//EN" "http://www.w3.org/Graphics/SVG/1.1/DTD/svg11.dtd">
<!-- Created with Vectornator (http://vectornator.io/) -->
<svg height="100%" stroke-miterlimit="10" style="fill-rule:nonzero;clip-rule:evenodd;stroke-linecap:round;stroke-linejoin:round;" version="1.1" viewBox="0 0 815 972" width="100%" xml:space="preserve" xmlns="http://www.w3.org/2000/svg" xmlns:vectornator="http://vectornator.io" xmlns:xlink="http://www.w3.org/1999/xlink">
<defs/>
<g id="Layer-1" vectornator:layerName="Layer 1">
<path d="M162.593 335.222C155.366 334.154 147.505 332.253 144.477 332.2C133.289 332.005 132.855 332.394 124.348 333.176C104.29 335.02 77.637 358.297 69.293 373.043C60.6163 388.376 56.12 404.503 55.0547 423.352C52.1822 474.176 65.3736 523.606 90.6504 565.734C96.324 575.19 102.374 584.537 109.16 593.262C112.76 597.89 118.432 602.788 121.025 607.975C123.735 613.394 120.059 621.838 119.127 627.434C116.189 645.064 113.433 662.773 112.008 680.59C108.299 726.945 105.829 750.935 119.935 804.434C121.597 810.738 133.935 839.251 137.637 844.805C147.133 859.049 155.51 874.455 166.588 887.994C184.331 909.68 211.179 927.296 237.779 932.133C247.274 933.859 257.096 932.689 266.73 932.133C271.713 931.845 280.932 928.833 285.715 925.963C294.309 920.806 302.161 915.687 309.445 908.402C312.848 905 315.023 900.452 318.463 897.012C323.682 891.793 339.344 883.048 346.465 882.299C357.527 881.134 374.648 881.011 383.959 887.994C403.266 902.474 418.506 928.999 443.285 934.506C499.887 947.084 543.472 919.229 568.582 869.01C573.096 859.981 576.758 848.353 579.023 838.16C579.522 835.918 580.606 832.82 581.418 829.495C581.828 827.818 581.613 825.129 582.346 824.397C587.377 829.428 595.521 835.521 602.279 837.211C648.092 848.664 672.734 818.126 674.42 775.986C676.937 713.064 647.969 636.135 607.975 586.143C609.445 584.182 611.547 583.261 614.119 581.989C616.619 580.753 619.579 579.154 621.738 578.074C633.802 572.042 645.172 558.695 653.063 548.174C690.321 498.496 704.264 430.428 708.117 368.771C709.792 341.978 707.727 314.653 702.897 288.088C702.268 284.633 694.635 258.068 695.303 256.289C695.664 255.326 697.649 254.631 699.142 253.64C702.091 251.682 705.479 249.487 707.168 248.221C714.151 242.984 723.068 234.506 727.576 226.389C734.406 214.092 737.788 201.877 739.441 186.996C741.958 164.345 722.001 126.907 701.411 116.613C679.395 105.605 663.352 101.486 636.451 108.211C628.994 110.075 622.704 114.574 616.289 118.85C614.651 119.942 607.917 124.546 605.268 126.505C603.776 127.609 606.214 126.721 605.127 126.721C604.277 126.721 605.698 127.563 604.267 126.479C602.625 125.235 598.125 122.007 597.259 121.394C591.56 117.353 588.827 115.154 583.509 112.126C580.664 110.506 576.354 108.163 572.379 106.313C560.268 100.676 555.253 98.4944 547.64 95.4492C528.235 87.6872 507.125 83.489 486.475 79.7344C464.762 75.7866 442.162 73.0898 420.029 73.0898C412.472 73.0898 404.697 74.1085 397.248 75.4629C396.092 75.673 391.549 76.7823 389.634 77.2724C388.584 77.5412 389.931 77.49 389.314 77.3135C389.232 77.2901 377.152 57.4041 375.416 55.5293C353.131 31.4613 322.47 19.2306 289.037 30.375C265.615 38.1824 245.535 58.7596 238.729 82.582C234.922 95.9037 232.009 113.17 235.881 126.721C237.532 132.498 240.544 141.481 244.424 146.654C246.145 148.949 250.697 153.73 250.119 156.621C249.419 160.12 242.524 165.112 240.152 168.012C231.862 178.145 224.477 188.723 216.896 199.336C196.999 227.193 184.45 259.18 173.707 291.41C170.122 302.164 167.155 313.064 164.689 324.158C164.09 326.857 163.774 327.516 162.593 335.222Z" fill="#3645c6" fill-rule="nonzero" opacity="1" stroke="none" vectornator:layerName="Curve"/>
<path d="M311.344 34.6465C269.016 38.4945 236.467 76.3124 244.424 120.076C245.676 126.963 248.17 136.145 252.492 141.908C254.631 144.76 258.82 151.342 260.617 155.05C261.35 156.563 261.035 155.121 261.035 156.621C261.035 157.784 262.425 154.971 261.246 156.294C259.118 158.684 253.68 165.202 252.492 166.588C244.164 176.304 236.424 186.272 228.762 196.488C212.797 217.775 201.148 242.98 191.268 267.68C188.251 275.222 185.328 283.039 183.132 290.36C181.709 295.103 180.699 299.828 178.928 304.699C176.19 312.229 175.594 317.293 173.232 327.48C171.954 332.997 171.257 335.457 170.64 340.012C170.566 340.559 170.04 340.1 172.408 341.325C174.505 342.41 179.215 345.466 179.989 345.999C182.661 347.842 190.203 356.016 191.706 358.893C196.734 368.521 199.764 372.424 201.495 379.35C205.568 395.641 210.676 409.002 214.049 425.725C218.309 446.845 222.72 461.879 229.711 479.355C234.783 492.036 243.102 504.206 250.119 515.9C253.342 521.272 260.561 527.783 260.561 534.41C260.561 535.646 259.317 536.756 258.188 537.258C253.957 539.138 249.142 528.961 247.271 526.342C238.395 513.915 231.307 500.109 224.49 486.475C213.249 463.991 209.109 438.237 203.133 414.334C199.703 400.615 195.002 381.831 187.889 369.022C182.232 358.835 177.319 351.517 167.063 347.414C134.545 334.407 107.356 343.049 84.0059 366.398C79.4131 370.991 73.8537 379.306 71.666 385.383C52.1822 439.507 67.9715 510.692 98.7188 561.938C105.256 572.833 112.605 583.329 120.551 593.262C123.755 597.267 130.732 602.663 131.941 607.5C133.299 612.931 128.286 624.828 127.195 630.281C124.059 645.963 122.088 662.273 121.025 678.217C118.206 720.501 115.837 766.39 130.698 806.018C134.723 816.752 139.269 829.807 145.705 840.533C157.336 859.919 169.971 879.986 186.047 896.063C210.427 920.443 249.299 931.797 280.494 919.318C294.404 913.754 302.861 900.748 313.242 890.367C328.409 875.2 354.085 873.134 373.518 875.18C393.798 877.314 405.903 899.022 419.08 912.199C442.368 935.487 486.191 932.037 511.629 919.318C539.786 905.24 560.077 875.048 568.582 845.279C569.947 840.502 571.88 833.98 573.809 825.544C574.998 820.348 575.815 811.943 577.6 810.158C585.252 815.26 594.628 827.97 604.178 830.092C636.93 837.37 660.467 820.407 665.402 788.326C673.423 736.193 653.85 683.113 631.23 637.875C624.327 624.068 615.147 610.902 606.551 598.008C604.541 594.993 599.917 589.018 598.195 584.874C597.681 583.64 597.371 583.953 597.533 582.82C597.834 580.712 596.444 582.253 598.359 581.358C600.735 580.247 606.616 576.909 608.449 576.176C619.955 571.574 634.016 558.955 641.672 549.598C666.13 519.704 677.274 485.504 687.709 448.98C699.509 407.682 702.769 361.607 699.1 319.412C697.68 303.092 695.111 286.467 690.557 270.527C689.36 266.338 684.41 256.095 685.811 251.543C686.169 250.378 686.906 250.454 687.822 250.076C689.17 249.518 690.865 248.778 691.98 248.221C699.087 244.667 706.703 238.244 712.389 232.559C731.865 213.082 735.121 180.942 725.203 156.146C710.399 119.137 667.251 104.678 634.078 118.178C625.766 121.56 607.2 138.045 603.229 137.162C601.371 136.749 593.372 129.119 592.673 128.513C588.729 125.095 583.577 121.763 579.023 119.127C569.016 113.334 558.693 108.649 548.066 104.681C540.655 101.914 533.097 99.496 525.393 97.2949C490.376 87.2902 454.796 81.6328 417.656 81.6328C411.296 81.6328 403.645 82.8897 397.175 83.9533C394.803 84.3433 385.758 85.6633 385.758 85.6633C385.758 85.6633 386.569 86.9455 385.758 85.545C385.167 84.5239 381.965 78.9539 378.12 73.1431C374.513 67.6917 369.556 61.6445 368.297 60.2754C353.611 44.3127 339.243 37.0534 311.344 34.6465Z" fill="#fefefe" fill-rule="nonzero" opacity="1" stroke="none"/>
<path d="M428.037 351.859C424.984 352.401 417.413 353.263 414.151 354.295C405.915 356.903 406.422 357.777 398.672 361.652C370.599 375.689 341.695 401.685 336.973 434.742C335.399 445.756 335.264 461.89 342.668 471.762C362.643 498.395 403.856 509.798 434.268 510.68C453.99 511.251 472.307 512.711 487.898 500.238C530.906 465.832 508.981 403.143 476.033 370.195C471.274 365.437 469.251 362.758 463.145 359.617C460.228 358.117 449.036 352.241 445.117 351.751C438.202 350.888 433.801 350.837 428.037 351.859Z" fill="#3645c6" fill-rule="nonzero" opacity="1" stroke="none"/>
<path d="M414.334 364.025C386.082 372.174 360.041 394.395 348.838 422.402C343.586 435.533 340.73 452.869 348.363 465.592C364.527 492.532 411.513 502.137 439.488 502.137C447.431 502.137 454.806 503.46 462.744 502.137C522.23 492.222 507.397 412.475 474.135 379.213C472.23 377.308 470.607 373.464 467.965 373.992C467.427 374.1 468.514 376.872 467.159 380.056C465.657 383.587 464.241 385.122 462.299 387.703C458.125 393.251 447.606 399.698 447.606 399.698C447.606 399.698 442.196 402.288 436.189 401.45C426.644 400.119 421.472 392.919 417.696 382.061C416.901 379.777 413.883 374.276 414.803 368.581C415.624 363.501 416.185 363.491 414.334 364.025Z" fill="#fefefe" fill-rule="nonzero" opacity="1" stroke="none" vectornator:layerName="Curve"/>
<path d="M312.768 60.75C282.674 61.1514 269.578 83.1539 269.578 111.533C269.578 117.438 275.67 131.166 281.918 132.416C285.407 133.114 290.156 133.883 293.783 133.365C298.555 132.683 304.382 127.766 308.496 125.297C320.155 118.302 332.872 111.448 345.041 105.363C351.009 102.379 353.109 94.697 353.109 88.752C353.109 84.8243 347.835 79.0407 345.516 76.4121C338.813 68.8152 331.934 64.3236 322.26 62.1738C319.11 61.4739 315.984 60.7071 312.768 60.75Z" fill="#a7faf0" fill-rule="nonzero" opacity="1" stroke="none"/>
<path d="M656.385 139.061C641.068 139.642 627.741 148.331 630.281 166.113C630.444 167.255 634.323 171.297 635.027 172.283C640.905 180.511 647.473 188.578 653.063 196.963C660.169 207.622 665.958 220.219 681.064 220.219C685.374 220.219 690.417 213.802 692.93 211.676C702.219 203.816 706.965 186.557 704.32 174.656C698.948 150.482 679.705 138.175 656.385 139.061Z" fill="#a7faf0" fill-rule="nonzero" opacity="1" stroke="none"/>
<path d="M389.335 420.194C385.206 419.236 379.394 417.751 379.916 419.584C380.92 423.11 383.83 430.682 385.04 433.705C390.332 446.936 396.36 459.87 401.651 473.098C402.999 476.467 406.435 482.374 408.94 486C410.777 488.66 414.596 486.277 418.34 483.9C429.962 476.525 448.517 458.547 456.231 451.74C458.252 449.957 464.512 443.761 466.774 440.378C467.468 439.341 467.013 439.682 467.008 439.514C467.004 439.349 467.028 439.212 466.873 438.892C466.579 438.286 464.412 437.187 463.454 436.872C458.834 435.353 457.073 435.131 454.549 434.475C453.172 434.117 446.794 432.677 445.619 432.402C442.502 431.673 435.239 430.071 432.116 429.411C414.393 425.665 426.521 428.208 418.371 426.508C403.324 423.369 400.76 422.844 389.335 420.194Z" fill="#3645c6" fill-rule="nonzero" opacity="1" stroke="none"/>
<path d="M364.025 285.24C351.669 287.094 345.516 316.803 345.516 328.904C345.516 336.261 355.775 342.084 361.652 341.244C372.268 339.728 374.882 328.876 377.314 320.361C382.193 303.285 389.806 281.372 364.025 285.24Z" fill="#3645c6" fill-rule="nonzero" opacity="1" stroke="none" vectornator:layerName="Curve"/>
<path d="M537.732 326.531C525.66 326.403 524.957 338.754 521.596 348.838C516.823 363.157 510.971 382.061 533.936 382.061C542.98 382.061 545.821 370.126 547.699 363.551C552.184 347.854 561.059 326.78 537.732 326.531Z" fill="#3645c6" fill-rule="nonzero" opacity="1" stroke="none"/>
<path d="M389.596 425.81C389.073 425.695 389.497 426.483 389.497 426.483C389.497 426.483 389.634 426.889 389.779 427.369C389.834 427.55 389.927 427.769 389.96 427.94C390.033 428.318 390.454 429.174 390.593 429.622C391.009 430.968 392.348 435.246 393.997 438.751C395.75 442.48 399.295 452.734 399.643 453.605C400.244 455.108 402.335 460.203 404.58 465.734C406.59 470.683 408.688 476.016 410.536 478.854C410.854 479.343 411.619 480.676 411.906 480.852C412.895 481.46 414.74 479.757 415.693 479.154C417.352 478.106 418.797 476.885 418.797 476.885C418.797 476.885 420.808 475.355 420.883 475.301C420.951 475.252 424.281 472.791 425.248 471.995C428.169 469.594 432.471 466.011 432.571 465.924C437.654 461.519 440.595 458.395 445.958 453.661C449.124 450.865 452.497 447.805 457.814 441.727C447.023 439.367 447.377 439.58 437.923 436.875C436.11 436.356 427.373 434.793 420.143 433.324C412.148 431.699 405.587 430.164 403.213 429.699C400.91 429.249 391.182 426.16 389.596 425.81Z" fill="#fefefe" fill-rule="nonzero" opacity="1" stroke="none"/>
</g>
</svg>
