<?xml version="1.0" encoding="UTF-8" standalone="no"?>
<svg
   xmlns:dc="http://purl.org/dc/elements/1.1/"
   xmlns:cc="http://creativecommons.org/ns#"
   xmlns:rdf="http://www.w3.org/1999/02/22-rdf-syntax-ns#"
   xmlns:svg="http://www.w3.org/2000/svg"
   xmlns="http://www.w3.org/2000/svg"
   xmlns:sodipodi="http://sodipodi.sourceforge.net/DTD/sodipodi-0.dtd"
   xmlns:inkscape="http://www.inkscape.org/namespaces/inkscape"
   width="110.76033"
   height="18.656446"
   viewBox="0 0 29.305337 4.9361848"
   version="1.1"
   id="svg16"
   inkscape:version="1.0.1 (c497b03c, 2020-09-10)"
   sodipodi:docname="baker hughes.svg">
  <defs
     id="defs10" />
  <sodipodi:namedview
     id="base"
     pagecolor="#00ffff"
     bordercolor="#666666"
     borderopacity="1.0"
     inkscape:pageopacity="0"
     inkscape:pageshadow="2"
     inkscape:zoom="1.5133388"
     inkscape:cx="10.742893"
     inkscape:cy="39.323079"
     inkscape:document-units="px"
     inkscape:current-layer="layer1"
     inkscape:document-rotation="0"
     showgrid="false"
     units="px"
     lock-margins="true"
     fit-margin-top="0.5"
     fit-margin-left="0.5"
     fit-margin-right="0.5"
     fit-margin-bottom="0.5"
     inkscape:window-width="1440"
     inkscape:window-height="872"
     inkscape:window-x="0"
     inkscape:window-y="28"
     inkscape:window-maximized="0" />
  <metadata
     id="metadata13">
    <rdf:RDF>
      <cc:Work
         rdf:about="">
        <dc:format>image/svg+xml</dc:format>
        <dc:type
           rdf:resource="http://purl.org/dc/dcmitype/StillImage" />
        <dc:title></dc:title>
      </cc:Work>
    </rdf:RDF>
  </metadata>
  <g
     inkscape:label="Layer 1"
     inkscape:groupmode="layer"
     id="layer1"
     transform="translate(-11.682568,-130.41145)">
    <g
       id="g16691"
       transform="translate(-277.09123,34.040229)">
      <path
         style="fill:#1ca18a;fill-opacity:1;fill-rule:nonzero;stroke:none;stroke-width:0.352778"
         d="m 314.20551,97.757143 c -0.15847,-0.05788 -0.23977,-0.232887 -0.1819,-0.389986 0.0579,-0.158471 0.23151,-0.239776 0.38999,-0.181899 -0.32935,-0.119888 -0.69453,0.04961 -0.81442,0.378961 -0.11989,0.330729 0.0496,0.694531 0.38033,0.815799 l 3.12264,1.135503 -2.68855,0.978409 c -0.32935,0.11989 -0.69453,-0.0496 -0.81442,-0.37896 -0.11989,-0.330731 0.0496,-0.694533 0.38033,-0.8158 -0.5016,0.183278 -0.76067,0.73863 -0.57877,1.24023 0.18328,0.50161 0.73725,0.7593 1.23885,0.5774 l 2.93385,-1.06798 c 0.29352,-0.106106 0.44648,-0.432704 0.339,-0.727602 -0.0593,-0.163989 -0.18742,-0.283877 -0.339,-0.338998 z m 0,0"
         id="path12565" />
      <path
         style="fill:#61c799;fill-opacity:1;fill-rule:nonzero;stroke:none;stroke-width:0.352778"
         d="m 317.10215,98.163666 -2.68855,-0.978408 c -0.32935,-0.119888 -0.69453,0.04961 -0.81442,0.378961 -0.11989,0.330729 0.0496,0.694531 0.38033,0.814419 -0.5016,-0.181899 -0.76067,-0.737249 -0.57877,-1.238857 0.18328,-0.501604 0.73863,-0.760677 1.24023,-0.577398 l 2.93247,1.067982 c 0.29352,0.106108 0.44648,0.432703 0.339,0.727604 -0.0606,0.163985 -0.18742,0.283877 -0.339,0.338998 l -3.36793,1.225074 c -0.15847,0.05788 -0.23977,0.232889 -0.1819,0.389989 0.0579,0.15847 0.23289,0.23978 0.38999,0.1819 -0.32935,0.11989 -0.69453,-0.0496 -0.81442,-0.37896 -0.11989,-0.330731 0.0496,-0.694533 0.38033,-0.814425 l 3.12264,-1.136879"
         id="path12567" />
      <path
         style="fill:#0c2e21;fill-opacity:1;fill-rule:nonzero;stroke:none;stroke-width:0.352778"
         d="m 289.88865,98.781027 h -0.45062 v 0.775836 h 0.47543 c 0.2756,0 0.42581,-0.144695 0.42581,-0.39412 0,-0.22462 -0.16261,-0.381716 -0.45062,-0.381716 m -0.0827,-1.063847 h -0.36794 v 0.650434 h 0.38861 c 0.2632,0 0.38172,-0.130912 0.38172,-0.338998 0,-0.201193 -0.15021,-0.311436 -0.40239,-0.311436 m -0.89986,-0.421679 h 0.92742 c 0.55673,0 0.93155,0.223241 0.93155,0.676617 0,0.300412 -0.21773,0.501604 -0.48231,0.563616 v 0.0083 c 0.41066,0.05512 0.62287,0.347267 0.62287,0.666972 0,0.496094 -0.40101,0.771701 -0.93706,0.771701 h -1.06247 z m 6.88468,1.508951 h 0.88332 c -0.0234,-0.220487 -0.19292,-0.402386 -0.44097,-0.402386 -0.26045,0 -0.42306,0.192924 -0.44235,0.402386 m 1.40698,0.220486 c 0,0.0441 0,0.09095 -0.007,0.14194 h -1.40422 c 0,0.260449 0.22048,0.485069 0.4892,0.485069 0.17363,0 0.29628,-0.07442 0.37896,-0.197061 l 0.43821,0.159854 c -0.14745,0.246669 -0.41065,0.43546 -0.8213,0.43546 -0.56362,0 -1.0046,-0.409277 -1.0046,-1.025262 0,-0.540191 0.35416,-0.993564 0.96877,-0.993564 0.62287,0 0.96187,0.465776 0.96187,0.993564 m 14.4818,-0.421679 c -0.0124,-0.133671 -0.0992,-0.212217 -0.21635,-0.212217 -0.12678,0 -0.19293,0.08268 -0.19293,0.165364 0,0.106109 0.0579,0.173634 0.37759,0.283877 0.39825,0.129533 0.54432,0.330729 0.54432,0.602202 0,0.347264 -0.26459,0.607715 -0.72898,0.607715 -0.48094,0 -0.70969,-0.252182 -0.73036,-0.618739 h 0.4768 c 0.0124,0.148827 0.0909,0.256314 0.26458,0.256314 0.13505,0 0.21635,-0.09095 0.21635,-0.201192 0,-0.130916 -0.0896,-0.209462 -0.37344,-0.30317 -0.35554,-0.114378 -0.54019,-0.292143 -0.54019,-0.588423 0,-0.338995 0.2756,-0.563616 0.68212,-0.563616 0.41755,0 0.65044,0.241156 0.68902,0.571885 z m -2.50665,0.201193 h 0.88332 c -0.0234,-0.220487 -0.19293,-0.402386 -0.44097,-0.402386 -0.26045,0 -0.42168,0.192924 -0.44235,0.402386 m 1.40835,0.220486 c 0,0.0441 0,0.09095 -0.008,0.14194 h -1.40284 c 0,0.260449 0.22048,0.485069 0.48782,0.485069 0.17364,0 0.29628,-0.07442 0.37896,-0.197061 l 0.43822,0.159854 c -0.14745,0.246669 -0.40928,0.43546 -0.82131,0.43546 -0.56362,0 -1.00459,-0.409277 -1.00459,-1.025262 0,-0.540191 0.35415,-0.993564 0.97014,-0.993564 0.62287,0 0.96187,0.465776 0.96187,0.993564 m -3.99631,-1.879643 h 0.53192 v 1.186491 h 0.0152 c 0.13092,-0.209462 0.34313,-0.296277 0.55673,-0.296277 0.42168,0 0.71658,0.279739 0.71658,0.864027 v 1.08314 h -0.53192 v -1.051443 c 0,-0.281122 -0.13367,-0.425813 -0.35416,-0.425813 -0.23289,0 -0.40239,0.16123 -0.40239,0.480934 v 0.996322 H 306.585 Z m -1.35461,2.415699 c 0.2632,0 0.47955,-0.216351 0.47955,-0.527787 0,-0.32384 -0.20808,-0.536057 -0.4768,-0.536057 -0.31833,0 -0.48369,0.267339 -0.48369,0.531922 0,0.260449 0.14883,0.531922 0.48094,0.531922 m 0.98116,0.362426 c 0,0.7028 -0.31557,1.07349 -1.01286,1.07349 -0.45889,0 -0.78272,-0.21635 -0.90675,-0.58015 l 0.48783,-0.17777 c 0.04,0.1819 0.17363,0.32384 0.45062,0.32384 0.31832,0 0.48369,-0.20119 0.48369,-0.567753 v -0.241156 h -0.011 c -0.12678,0.150206 -0.31144,0.272849 -0.60358,0.272849 -0.48783,0 -0.89021,-0.383092 -0.89021,-0.993563 0,-0.56775 0.38998,-0.997698 0.91363,-0.997698 0.30042,0 0.47818,0.15434 0.57189,0.288008 h 0.0193 v -0.228756 h 0.49747 z m -2.2779,0.05926 h -0.52779 v -0.235645 h -0.0124 c -0.15297,0.224621 -0.34589,0.299025 -0.55122,0.299025 -0.3073,0 -0.68626,-0.188781 -0.68626,-0.830946 v -1.120349 h 0.53192 v 1.052823 c 0,0.275608 0.13091,0.425814 0.33624,0.425814 0.23151,0 0.37759,-0.16123 0.37759,-0.476801 v -1.001836 h 0.53192 z m -2.68442,-1.142393 h -1.0349 v 1.142393 h -0.56362 v -2.687175 h 0.56362 v 1.055578 h 1.0349 v -1.055578 h 0.56362 v 2.687175 h -0.56362 z m -2.51078,-0.288011 c -0.0675,-0.01242 -0.14608,-0.02343 -0.25218,-0.02343 -0.31558,0 -0.47267,0.197062 -0.47267,0.536057 v 0.917776 h -0.5333 v -1.887915 h 0.5209 v 0.292146 h 0.0124 c 0.10198,-0.184658 0.29904,-0.347268 0.55122,-0.347268 0.0744,0 0.12264,0.0041 0.17363,0.01655 z m -4.57509,0.654569 -0.12127,0.118512 v 0.657323 h -0.53192 v -2.837381 h 0.53192 v 1.588876 l 0.59807,-0.63941 h 0.64768 l -0.75655,0.777216 0.87092,1.110699 h -0.64354 z m -2.02021,0.377581 c 0.25219,0 0.47267,-0.220486 0.47267,-0.538812 0,-0.332108 -0.20532,-0.54846 -0.46853,-0.54846 -0.33211,0 -0.4892,0.271473 -0.4892,0.544326 0,0.275608 0.15434,0.542946 0.48506,0.542946 m 0.97703,0.398254 h -0.51265 v -0.235645 h -0.0152 c -0.12265,0.161231 -0.3073,0.299025 -0.6146,0.299025 -0.36656,0 -0.8599,-0.29489 -0.8599,-1.008715 0,-0.607716 0.41755,-0.993566 0.89848,-0.993566 0.29628,0 0.47405,0.146074 0.57602,0.29628 h 0.0152 v -0.245294 h 0.51263 z m 0,0"
         id="path12569" />
    </g>
  </g>
</svg>
