<svg xmlns="http://www.w3.org/2000/svg" fill="none" viewBox="0 0 1176 814">
  <g filter="url(#a)">
    <rect width="1138" height="125" x="141.133" y="627.137" fill="#4b4c55" rx="40" transform="rotate(-32.351 141.133 627.137)"/>
    <path fill="#fde4a5" d="m83.133 685.686 103-42.947 30.5 42.947-87.283 78.389s-17.717-15.335-46.217-10.335-61 18.5-61 18.5 31.5-18.5 49-39 12-47.554 12-47.554"/>
    <path fill="#4b4c54" d="M1039.12 12.078c30.89-21.362 73.25-13.639 94.61 17.25l15.68 22.68c21.36 30.889 13.64 73.246-17.24 94.608l-120.74 83.5v.001l-4.31 2.982-185.933 128.586-.06.04-55.869 38.638-93.044-134.537L918.382 95.579z"/>
    <path fill="#fde4a5" d="m989.133 47.128 53.481-36.942 92.764 134.294-53.481 36.942z"/>
    <path fill="#fde4a5" d="M780.633 279.686 1038.03 66.814l37.35 51.007z"/>
    <circle cx="793.633" cy="264.686" r="24.5" fill="#fde4a5"/>
  </g>
  <defs>
    <filter id="a" width="1153.36" height="786.24" x="22.133" y="0" color-interpolation-filters="sRGB" filterUnits="userSpaceOnUse">
      <feFlood flood-opacity="0" result="BackgroundImageFix"/>
      <feColorMatrix in="SourceAlpha" result="hardAlpha" values="0 0 0 0 0 0 0 0 0 0 0 0 0 0 0 0 0 0 127 0"/>
      <feOffset dx="10" dy="10"/>
      <feGaussianBlur stdDeviation="2"/>
      <feComposite in2="hardAlpha" operator="out"/>
      <feColorMatrix values="0 0 0 0 0 0 0 0 0 0 0 0 0 0 0 0 0 0 0.25 0"/>
      <feBlend in2="BackgroundImageFix" result="effect1_dropShadow_225_139"/>
      <feBlend in="SourceGraphic" in2="effect1_dropShadow_225_139" result="shape"/>
    </filter>
  </defs>
</svg>
