<svg preserveAspectRatio="none" width="100%" height="100%" overflow="visible" style="display: block;" viewBox="0 0 152.392 161.015" fill="none" xmlns="http://www.w3.org/2000/svg">
<g id="Group 6">
<g id="Subtract">
<mask id="path-1-outside-1_2022_180" maskUnits="userSpaceOnUse" x="0" y="0" width="153" height="162" fill="black">
<rect fill="white" width="153" height="162"/>
<path d="M143.167 5C145.9 12.5586 147.392 20.7123 147.392 29.2139V84.8184C147.392 124.139 115.516 156.015 76.1953 156.015C36.8752 156.014 5 124.139 5 84.8184V29.2139C5 20.7122 6.49127 12.5586 9.22461 5H143.167Z"/>
</mask>
<path d="M143.167 5C145.9 12.5586 147.392 20.7123 147.392 29.2139V84.8184C147.392 124.139 115.516 156.015 76.1953 156.015C36.8752 156.014 5 124.139 5 84.8184V29.2139C5 20.7122 6.49127 12.5586 9.22461 5H143.167Z" fill="var(--fill-0, #CDDBA6)"/>
<path d="M143.167 5L147.869 3.29967L146.676 0H143.167V5ZM76.1953 156.015L76.1953 161.015H76.1953V156.015ZM9.22461 5V0H5.71583L4.5226 3.29966L9.22461 5ZM143.167 5L138.465 6.70033C141.004 13.722 142.392 21.3008 142.392 29.2139H147.392H152.392C152.392 20.1238 150.796 11.3952 147.869 3.29967L143.167 5ZM147.392 29.2139H142.392V84.8184H147.392H152.392V29.2139H147.392ZM147.392 84.8184H142.392C142.392 121.377 112.754 151.015 76.1953 151.015V156.015V161.015C118.277 161.015 152.392 126.9 152.392 84.8184H147.392ZM76.1953 156.015L76.1953 151.015C39.6367 151.014 10 121.377 10 84.8184H5H0C0 126.9 34.1137 161.014 76.1953 161.015L76.1953 156.015ZM5 84.8184H10V29.2139H5H0V84.8184H5ZM5 29.2139H10C10 21.3008 11.3874 13.722 13.9266 6.70034L9.22461 5L4.5226 3.29966C1.5951 11.3952 0 20.1237 0 29.2139H5ZM9.22461 5V10H143.167V5V0H9.22461V5Z" fill="var(--stroke-0, #CDDBA6)" mask="url(#path-1-outside-1_2022_180)"/>
</g>
<g id="Subtract_2">
<mask id="path-3-inside-2_2022_180" fill="white">
<path d="M143.167 5C145.9 12.5586 147.392 20.7123 147.392 29.2139V84.8184C147.392 124.139 115.516 156.015 76.1953 156.015C36.8752 156.014 5 124.139 5 84.8184V29.2139C5 20.7122 6.49127 12.5586 9.22461 5H143.167Z"/>
</mask>
<path d="M143.167 5C145.9 12.5586 147.392 20.7123 147.392 29.2139V84.8184C147.392 124.139 115.516 156.015 76.1953 156.015C36.8752 156.014 5 124.139 5 84.8184V29.2139C5 20.7122 6.49127 12.5586 9.22461 5H143.167Z" fill="var(--fill-0, #CDDBA6)"/>
<path d="M143.167 5L147.869 3.29967L146.676 0H143.167V5ZM76.1953 156.015L76.1953 161.015H76.1953V156.015ZM9.22461 5V0H5.71583L4.5226 3.29966L9.22461 5ZM143.167 5L138.465 6.70033C141.004 13.722 142.392 21.3008 142.392 29.2139H147.392H152.392C152.392 20.1238 150.796 11.3952 147.869 3.29967L143.167 5ZM147.392 29.2139H142.392V84.8184H147.392H152.392V29.2139H147.392ZM147.392 84.8184H142.392C142.392 121.377 112.754 151.015 76.1953 151.015V156.015V161.015C118.277 161.015 152.392 126.9 152.392 84.8184H147.392ZM76.1953 156.015L76.1953 151.015C39.6367 151.014 10 121.377 10 84.8184H5H0C0 126.9 34.1137 161.014 76.1953 161.015L76.1953 156.015ZM5 84.8184H10V29.2139H5H0V84.8184H5ZM5 29.2139H10C10 21.3008 11.3874 13.722 13.9266 6.70034L9.22461 5L4.5226 3.29966C1.5951 11.3952 0 20.1237 0 29.2139H5ZM9.22461 5V10H143.167V5V0H9.22461V5Z" fill="var(--stroke-0, #F1F1F1)" mask="url(#path-3-inside-2_2022_180)"/>
</g>
</g>
</svg>
