<svg xmlns="http://www.w3.org/2000/svg" viewBox="0 9.470000267028809 189.47999572753906 36.37999725341797" data-asc="0.9052734375" width="189.47999572753906" height="36.37999725341797"><defs/><g fill="#000000"><g transform="translate(0, 0)"><path d="M18.41 45.26L18.41 41.99Q15.94 45.85 11.16 45.85Q8.06 45.85 5.46 44.14Q2.86 42.43 1.43 39.37Q0 36.30 0 32.32Q0 28.44 1.29 25.28Q2.59 22.12 5.18 20.43Q7.76 18.75 10.96 18.75Q13.31 18.75 15.14 19.74Q16.97 20.73 18.12 22.31L18.12 9.47L22.49 9.47L22.49 45.26L18.41 45.26M4.52 32.32Q4.52 37.30 6.62 39.77Q8.72 42.24 11.57 42.24Q14.45 42.24 16.47 39.88Q18.48 37.52 18.48 32.69Q18.48 27.37 16.43 24.88Q14.38 22.39 11.38 22.39Q8.45 22.39 6.48 24.78Q4.52 27.17 4.52 32.32ZM46.31 42.07Q43.87 44.14 41.61 45.00Q39.36 45.85 36.77 45.85Q32.50 45.85 30.20 43.76Q27.91 41.67 27.91 38.43Q27.91 36.52 28.77 34.95Q29.64 33.37 31.04 32.42Q32.45 31.47 34.20 30.98Q35.50 30.64 38.11 30.32Q43.43 29.69 45.95 28.81Q45.97 27.91 45.97 27.66Q45.97 24.98 44.73 23.88Q43.04 22.39 39.72 22.39Q36.62 22.39 35.14 23.47Q33.67 24.56 32.96 27.32L28.66 26.73Q29.25 23.97 30.59 22.28Q31.93 20.58 34.47 19.67Q37.01 18.75 40.36 18.75Q43.68 18.75 45.75 19.53Q47.83 20.31 48.80 21.50Q49.78 22.68 50.17 24.49Q50.39 25.61 50.39 28.54L50.39 34.40Q50.39 40.53 50.67 42.15Q50.95 43.77 51.78 45.26L47.19 45.26Q46.51 43.90 46.31 42.07M45.95 32.25Q43.55 33.23 38.77 33.91Q36.06 34.30 34.94 34.79Q33.81 35.28 33.20 36.22Q32.59 37.16 32.59 38.31Q32.59 40.06 33.92 41.24Q35.25 42.41 37.82 42.41Q40.36 42.41 42.33 41.30Q44.31 40.19 45.24 38.26Q45.95 36.77 45.95 33.86L45.95 32.25ZM66.80 41.33L67.43 45.21Q65.58 45.61 64.11 45.61Q61.72 45.61 60.40 44.85Q59.08 44.09 58.54 42.86Q58.01 41.63 58.01 37.67L58.01 22.75L54.79 22.75L54.79 19.34L58.01 19.34L58.01 12.92L62.38 10.28L62.38 19.34L66.80 19.34L66.80 22.75L62.38 22.75L62.38 37.92Q62.38 39.79 62.61 40.33Q62.84 40.87 63.37 41.19Q63.89 41.50 64.87 41.50Q65.60 41.50 66.80 41.33ZM88.01 42.07Q85.57 44.14 83.31 45.00Q81.05 45.85 78.47 45.85Q74.19 45.85 71.90 43.76Q69.60 41.67 69.60 38.43Q69.60 36.52 70.47 34.95Q71.34 33.37 72.74 32.42Q74.15 31.47 75.90 30.98Q77.20 30.64 79.81 30.32Q85.13 29.69 87.65 28.81Q87.67 27.91 87.67 27.66Q87.67 24.98 86.43 23.88Q84.74 22.39 81.42 22.39Q78.32 22.39 76.84 23.47Q75.37 24.56 74.66 27.32L70.36 26.73Q70.95 23.97 72.29 22.28Q73.63 20.58 76.17 19.67Q78.71 18.75 82.06 18.75Q85.38 18.75 87.45 19.53Q89.53 20.31 90.50 21.50Q91.48 22.68 91.87 24.49Q92.09 25.61 92.09 28.54L92.09 34.40Q92.09 40.53 92.37 42.15Q92.65 43.77 93.48 45.26L88.89 45.26Q88.21 43.90 88.01 42.07M87.65 32.25Q85.25 33.23 80.47 33.91Q77.76 34.30 76.64 34.79Q75.51 35.28 74.90 36.22Q74.29 37.16 74.29 38.31Q74.29 40.06 75.62 41.24Q76.95 42.41 79.52 42.41Q82.06 42.41 84.03 41.30Q86.01 40.19 86.94 38.26Q87.65 36.77 87.65 33.86L87.65 32.25ZM108.50 41.33L109.13 45.21Q107.28 45.61 105.81 45.61Q103.42 45.61 102.10 44.85Q100.78 44.09 100.24 42.86Q99.71 41.63 99.71 37.67L99.71 22.75L96.48 22.75L96.48 19.34L99.71 19.34L99.71 12.92L104.08 10.28L104.08 19.34L108.50 19.34L108.50 22.75L104.08 22.75L104.08 37.92Q104.08 39.79 104.31 40.33Q104.54 40.87 105.07 41.19Q105.59 41.50 106.57 41.50Q107.30 41.50 108.50 41.33ZM112.79 45.26L112.79 9.47L117.19 9.47L117.19 22.31Q120.26 18.75 124.95 18.75Q127.83 18.75 129.96 19.89Q132.08 21.02 133.00 23.02Q133.91 25.02 133.91 28.83L133.91 45.26L129.52 45.26L129.52 28.83Q129.52 25.54 128.09 24.04Q126.66 22.53 124.05 22.53Q122.09 22.53 120.37 23.55Q118.65 24.56 117.92 26.29Q117.19 28.03 117.19 31.08L117.19 45.26L112.79 45.26ZM138.96 32.30Q138.96 25.10 142.97 21.63Q146.31 18.75 151.12 18.75Q156.47 18.75 159.86 22.25Q163.26 25.76 163.26 31.93Q163.26 36.94 161.76 39.81Q160.25 42.68 157.39 44.26Q154.52 45.85 151.12 45.85Q145.68 45.85 142.32 42.36Q138.96 38.87 138.96 32.30M143.48 32.30Q143.48 37.28 145.65 39.76Q147.83 42.24 151.12 42.24Q154.39 42.24 156.57 39.75Q158.74 37.26 158.74 32.15Q158.74 27.34 156.56 24.87Q154.37 22.39 151.12 22.39Q147.83 22.39 145.65 24.85Q143.48 27.32 143.48 32.30ZM168.41 45.26L168.41 19.34L172.36 19.34L172.36 23.02Q175.22 18.75 180.62 18.75Q182.96 18.75 184.92 19.59Q186.89 20.43 187.87 21.80Q188.84 23.17 189.23 25.05Q189.48 26.27 189.48 29.32L189.48 45.26L185.08 45.26L185.08 29.49Q185.08 26.81 184.57 25.48Q184.06 24.15 182.75 23.35Q181.45 22.56 179.69 22.56Q176.88 22.56 174.84 24.34Q172.80 26.12 172.80 31.10L172.80 45.26L168.41 45.26Z"/></g><g transform="translate(0, 60.595703125)"><path d=""/></g></g></svg>