<svg xmlns="http://www.w3.org/2000/svg" viewBox="0 10.279999732971191 106.69000244140625 35.56999969482422" data-asc="0.9052734375" width="106.69000244140625" height="35.56999969482422"><defs/><g fill="#000000"><g transform="translate(0, 0)"><path d="M12.01 41.33L12.65 45.21Q10.79 45.61 9.33 45.61Q6.93 45.61 5.62 44.85Q4.30 44.09 3.76 42.86Q3.22 41.63 3.22 37.67L3.22 22.75L0 22.75L0 19.34L3.22 19.34L3.22 12.92L7.59 10.28L7.59 19.34L12.01 19.34L12.01 22.75L7.59 22.75L7.59 37.92Q7.59 39.79 7.82 40.33Q8.06 40.87 8.58 41.19Q9.11 41.50 10.08 41.50Q10.82 41.50 12.01 41.33ZM33.23 42.07Q30.79 44.14 28.53 45.00Q26.27 45.85 23.68 45.85Q19.41 45.85 17.11 43.76Q14.82 41.67 14.82 38.43Q14.82 36.52 15.69 34.95Q16.55 33.37 17.96 32.42Q19.36 31.47 21.12 30.98Q22.41 30.64 25.02 30.32Q30.35 29.69 32.86 28.81Q32.89 27.91 32.89 27.66Q32.89 24.98 31.64 23.88Q29.96 22.39 26.64 22.39Q23.54 22.39 22.06 23.47Q20.58 24.56 19.87 27.32L15.58 26.73Q16.16 23.97 17.50 22.28Q18.85 20.58 21.39 19.67Q23.93 18.75 27.27 18.75Q30.59 18.75 32.67 19.53Q34.74 20.31 35.72 21.50Q36.69 22.68 37.08 24.49Q37.30 25.61 37.30 28.54L37.30 34.40Q37.30 40.53 37.59 42.15Q37.87 43.77 38.70 45.26L34.11 45.26Q33.42 43.90 33.23 42.07M32.86 32.25Q30.47 33.23 25.68 33.91Q22.97 34.30 21.85 34.79Q20.73 35.28 20.12 36.22Q19.51 37.16 19.51 38.31Q19.51 40.06 20.84 41.24Q22.17 42.41 24.73 42.41Q27.27 42.41 29.25 41.30Q31.23 40.19 32.15 38.26Q32.86 36.77 32.86 33.86L32.86 32.25ZM44.12 45.26L44.12 19.34L48.05 19.34L48.05 22.97Q49.27 21.07 51.29 19.91Q53.32 18.75 55.91 18.75Q58.79 18.75 60.63 19.95Q62.48 21.14 63.23 23.29Q66.31 18.75 71.24 18.75Q75.10 18.75 77.17 20.89Q79.25 23.02 79.25 27.47L79.25 45.26L74.88 45.26L74.88 28.93Q74.88 26.29 74.45 25.13Q74.02 23.97 72.90 23.27Q71.78 22.56 70.26 22.56Q67.53 22.56 65.72 24.38Q63.92 26.20 63.92 30.20L63.92 45.26L59.52 45.26L59.52 28.42Q59.52 25.49 58.45 24.02Q57.37 22.56 54.93 22.56Q53.08 22.56 51.50 23.54Q49.93 24.51 49.22 26.39Q48.51 28.27 48.51 31.81L48.51 45.26L44.12 45.26ZM102.76 45.26L102.76 41.46Q99.73 45.85 94.53 45.85Q92.24 45.85 90.25 44.97Q88.26 44.09 87.29 42.76Q86.33 41.43 85.94 39.50Q85.67 38.21 85.67 35.40L85.67 19.34L90.06 19.34L90.06 33.72Q90.06 37.16 90.33 38.35Q90.75 40.09 92.09 41.08Q93.43 42.07 95.41 42.07Q97.39 42.07 99.12 41.05Q100.85 40.04 101.57 38.29Q102.29 36.55 102.29 33.23L102.29 19.34L106.69 19.34L106.69 45.26L102.76 45.26Z"/></g><g transform="translate(0, 60.595703125)"><path d=""/></g></g></svg>